<svg width="110" height="54" viewBox="0 0 110 54" fill="none" xmlns="http://www.w3.org/2000/svg">
<path d="M12.0635 27.1304L7.40283 41H4.13477L10.2441 24.6484H12.333L12.0635 27.1304ZM15.9604 41L11.2773 27.1304L10.9966 24.6484H13.0967L19.2397 41H15.9604ZM15.7471 34.9243V37.3613H6.97607V34.9243H15.7471ZM31.3013 38.5742V41H23.0806V38.5742H31.3013ZM24.0127 24.6484V41H20.9243V24.6484H24.0127ZM37.6914 24.6484V41H34.6143V24.6484H37.6914ZM42.7676 24.6484V27.0854H29.5942V24.6484H42.7676ZM48.1133 24.6484V41H45.0249V24.6484H48.1133ZM58.1309 24.6484V41H55.0537V24.6484H58.1309ZM63.207 24.6484V27.0854H50.0337V24.6484H63.207ZM74.3589 24.6484H77.4473V35.5083C77.4473 36.7586 77.1777 37.8105 76.6387 38.6641C76.0996 39.5101 75.3659 40.1502 74.4375 40.5845C73.5091 41.0112 72.4535 41.2246 71.2705 41.2246C70.0726 41.2246 69.0057 41.0112 68.0698 40.5845C67.134 40.1502 66.4002 39.5101 65.8687 38.6641C65.3371 37.8105 65.0713 36.7586 65.0713 35.5083V24.6484H68.1597V35.5083C68.1597 36.272 68.2869 36.8971 68.5415 37.3838C68.7961 37.863 69.1554 38.2186 69.6196 38.4507C70.0838 38.6828 70.6341 38.7988 71.2705 38.7988C71.9144 38.7988 72.4647 38.6828 72.9214 38.4507C73.3856 38.2186 73.7412 37.863 73.9883 37.3838C74.2354 36.8971 74.3589 36.272 74.3589 35.5083V24.6484ZM85.2637 41H81.7373L81.7598 38.5742H85.2637C86.2145 38.5742 87.0119 38.3646 87.6558 37.9453C88.2996 37.5186 88.7863 36.9084 89.1157 36.1147C89.4451 35.3136 89.6099 34.3553 89.6099 33.2397V32.3975C89.6099 31.5365 89.5163 30.7765 89.3291 30.1177C89.1419 29.4588 88.8649 28.9048 88.498 28.4556C88.1387 28.0063 87.6932 27.6657 87.1616 27.4336C86.63 27.2015 86.0199 27.0854 85.3311 27.0854H81.6699V24.6484H85.3311C86.4242 24.6484 87.4199 24.8319 88.3184 25.1987C89.2243 25.5656 90.0067 26.0934 90.6655 26.7822C91.3319 27.4635 91.841 28.2796 92.1929 29.2305C92.5522 30.1813 92.7319 31.2445 92.7319 32.4199V33.2397C92.7319 34.4077 92.5522 35.4709 92.1929 36.4292C91.841 37.38 91.3319 38.1961 90.6655 38.8774C90.0067 39.5588 89.2205 40.0828 88.3071 40.4497C87.3937 40.8166 86.3792 41 85.2637 41ZM83.4668 24.6484V41H80.3784V24.6484H83.4668ZM106.197 38.5742V41H97.5049V38.5742H106.197ZM98.4482 24.6484V41H95.3599V24.6484H98.4482ZM105.063 31.3979V33.7676H97.5049V31.3979H105.063ZM106.164 24.6484V27.0854H97.5049V24.6484H106.164Z" fill="white"/>
<path d="M55.0001 10L68 20L55.0001 15.8065L42 20L55.0001 10Z" fill="#64CCC5"/>
</svg>
