<svg width="110" height="54" viewBox="0 0 110 54" fill="none" xmlns="http://www.w3.org/2000/svg">
<rect width="110" height="54" fill="white"/>
<path d="M12.0635 27.1304L7.40283 41H4.13477L10.2441 24.6484H12.333L12.0635 27.1304ZM15.9604 41L11.2773 27.1304L10.9966 24.6484H13.0967L19.2397 41H15.9604ZM15.7471 34.9243V37.3613H6.97607V34.9243H15.7471ZM31.3013 38.5742V41H23.0806V38.5742H31.3013ZM24.0127 24.6484V41H20.9243V24.6484H24.0127ZM37.6914 24.6484V41H34.6143V24.6484H37.6914ZM42.7676 24.6484V27.0854H29.5942V24.6484H42.7676ZM48.1133 24.6484V41H45.0249V24.6484H48.1133ZM58.1309 24.6484V41H55.0537V24.6484H58.1309ZM63.207 24.6484V27.0854H50.0337V24.6484H63.207ZM74.3589 24.6484H77.4473V35.5083C77.4473 36.7586 77.1777 37.8105 76.6387 38.6641C76.0996 39.5101 75.3659 40.1502 74.4375 40.5845C73.5091 41.0112 72.4535 41.2246 71.2705 41.2246C70.0726 41.2246 69.0057 41.0112 68.0698 40.5845C67.134 40.1502 66.4002 39.5101 65.8687 38.6641C65.3371 37.8105 65.0713 36.7586 65.0713 35.5083V24.6484H68.1597V35.5083C68.1597 36.272 68.2869 36.8971 68.5415 37.3838C68.7961 37.863 69.1554 38.2186 69.6196 38.4507C70.0838 38.6828 70.6341 38.7988 71.2705 38.7988C71.9144 38.7988 72.4647 38.6828 72.9214 38.4507C73.3856 38.2186 73.7412 37.863 73.9883 37.3838C74.2354 36.8971 74.3589 36.272 74.3589 35.5083V24.6484ZM87.3975 24.6484V41H84.3203V24.6484H87.3975ZM92.4736 24.6484V27.0854H79.3003V24.6484H92.4736ZM105.366 38.5742V41H96.6738V38.5742H105.366ZM97.6172 24.6484V41H94.5288V24.6484H97.6172ZM104.232 31.3979V33.7676H96.6738V31.3979H104.232ZM105.333 24.6484V27.0854H96.6738V24.6484H105.333Z" fill="black"/>
<path d="M55.0001 10L68 20L55.0001 15.8065L42 20L55.0001 10Z" fill="#64CCC5"/>
</svg>
