<svg width="44" height="42" viewBox="0 0 44 42" fill="none" xmlns="http://www.w3.org/2000/svg">
<path d="M31.2057 26.1723C30.5041 26.1723 29.8183 26.3757 29.2349 26.7568C28.6516 27.138 28.1969 27.6797 27.9284 28.3134C27.6599 28.9472 27.5897 29.6446 27.7265 30.3174C27.8634 30.9902 28.2013 31.6083 28.6974 32.0933C29.1935 32.5784 29.8255 32.9088 30.5136 33.0426C31.2017 33.1764 31.915 33.1077 32.5632 32.8452C33.2114 32.5827 33.7654 32.1381 34.1551 31.5677C34.5449 30.9974 34.753 30.3268 34.753 29.6408C34.7518 28.7212 34.3776 27.8397 33.7126 27.1895C33.0477 26.5393 32.1461 26.1735 31.2057 26.1723ZM31.2057 31.375C30.8549 31.375 30.512 31.2733 30.2203 31.0827C29.9286 30.8922 29.7013 30.6213 29.567 30.3044C29.4328 29.9875 29.3977 29.6388 29.4661 29.3024C29.5345 28.966 29.7035 28.657 29.9515 28.4145C30.1996 28.1719 30.5156 28.0068 30.8597 27.9399C31.2037 27.8729 31.5603 27.9073 31.8844 28.0385C32.2085 28.1698 32.4855 28.3921 32.6804 28.6773C32.8753 28.9625 32.9793 29.2978 32.9793 29.6408C32.979 30.1006 32.792 30.5415 32.4595 30.8667C32.1269 31.1919 31.676 31.3747 31.2057 31.375ZM40.5762 27.7219C40.6372 27.502 40.6529 27.2724 40.6222 27.0464C40.5916 26.8205 40.5153 26.6028 40.3978 26.406L38.6675 23.4727C38.4314 23.0752 38.0439 22.7853 37.5897 22.6665C37.1355 22.5478 36.6517 22.6099 36.2443 22.8393L34.753 23.6133V21.8367C34.7527 21.3769 34.5657 20.9359 34.2331 20.6108C33.9006 20.2856 33.4496 20.1028 32.9793 20.1025H29.432C28.9617 20.1028 28.5108 20.2856 28.1782 20.6108C27.8457 20.9359 27.6587 21.3769 27.6584 21.8367L27.641 23.6709L26.1671 22.8376C25.7594 22.6092 25.2758 22.548 24.822 22.6673C24.3682 22.7867 23.9812 23.0768 23.7457 23.4744L22.0119 26.4077C21.7783 26.8064 21.7157 27.2793 21.8377 27.723C21.9598 28.1667 22.2565 28.545 22.6631 28.7753L24.1146 29.6865L22.6614 30.5062C22.255 30.7372 21.9588 31.1161 21.8374 31.5601C21.716 32.0041 21.7793 32.4771 22.0136 32.8755L23.744 35.8054C23.8604 36.0029 24.0155 36.1761 24.2004 36.315C24.3853 36.4539 24.5963 36.5558 24.8215 36.615C25.0467 36.6741 25.2816 36.6893 25.5128 36.6597C25.7439 36.63 25.9669 36.5561 26.1689 36.4422L27.6585 35.6225V37.4448C27.6588 37.9047 27.8457 38.3456 28.1783 38.6708C28.5109 38.9959 28.9618 39.1787 29.4321 39.1791H32.9794C33.4497 39.1787 33.9007 38.9959 34.2332 38.6708C34.5658 38.3456 34.7527 37.9047 34.7531 37.4448L34.7669 35.6344L34.7894 35.6208L36.2461 36.4439C36.6542 36.671 37.1373 36.7315 37.5907 36.6123C38.0441 36.493 38.4311 36.2037 38.6676 35.8071L40.3979 32.8772C40.6335 32.4789 40.6978 32.0055 40.5766 31.5609C40.4555 31.1163 40.1587 30.737 39.7517 30.5061L38.3123 29.5865L39.7517 28.7754C39.9535 28.6618 40.1303 28.5102 40.2718 28.3293C40.4133 28.1485 40.5168 27.9421 40.5762 27.7219ZM37.4256 28.0861C37.1473 28.2444 36.9164 28.4712 36.7559 28.7441C36.5954 29.0169 36.511 29.3261 36.511 29.6409C36.511 29.9556 36.5954 30.2648 36.7559 30.5376C36.9164 30.8105 37.1473 31.0373 37.4256 31.1956L38.8632 32.0068L37.1311 34.9418L35.6588 34.1103C35.3975 33.9611 35.1006 33.882 34.7981 33.8808C34.4955 33.8796 34.198 33.9564 33.9354 34.1035L33.8713 34.1374C33.602 34.2861 33.3777 34.5019 33.221 34.7627C33.0644 35.0235 32.981 35.3202 32.9793 35.6226V37.4448H29.432V35.6225C29.43 35.3172 29.3449 35.0178 29.1854 34.7553C29.0259 34.4928 28.7977 34.2765 28.5244 34.1288C28.2472 33.9711 27.9323 33.8876 27.6116 33.8866C27.3106 33.8856 27.0147 33.9627 26.7542 34.1101L25.2803 34.94L23.55 32.0067L24.998 31.1887C25.2691 31.0269 25.4932 30.7998 25.6487 30.5291C25.8043 30.2584 25.8862 29.9531 25.8866 29.6426C25.8869 29.3321 25.8057 29.0266 25.6508 28.7556C25.4958 28.4845 25.2723 28.2569 25.0015 28.0945L23.5483 27.2731L25.2821 24.3398L26.7509 25.1697C27.0242 25.3203 27.3334 25.3975 27.6471 25.3933C27.9608 25.3892 28.2677 25.3038 28.5367 25.146C28.8072 24.9977 29.0326 24.782 29.1899 24.5208C29.3472 24.2595 29.4308 23.9622 29.4322 23.659V21.8367H32.9795V23.659C32.9811 23.9617 33.0647 24.2585 33.2217 24.5194C33.3786 24.7803 33.6035 24.9959 33.8732 25.1443L33.8888 25.1528C34.1557 25.309 34.4603 25.393 34.7713 25.3963C35.0823 25.3996 35.3887 25.322 35.6589 25.1714L37.1329 24.3415L38.8633 27.2748L37.4256 28.0861ZM18.4662 12.8404C17.4169 12.8404 16.3912 13.1446 15.5187 13.7146C14.6463 14.2846 13.9663 15.0948 13.5647 16.0427C13.1632 16.9906 13.0581 18.0336 13.2628 19.0399C13.4675 20.0461 13.9728 20.9704 14.7148 21.6959C15.4567 22.4214 16.4021 22.9155 17.4312 23.1156C18.4603 23.3158 19.5271 23.213 20.4965 22.8204C21.4659 22.4278 22.2945 21.7629 22.8775 20.9098C23.4604 20.0568 23.7716 19.0538 23.7716 18.0278C23.77 16.6525 23.2106 15.3339 22.216 14.3614C21.2213 13.3889 19.8728 12.8419 18.4662 12.8404ZM18.4662 21.4811C17.7677 21.4811 17.0849 21.2785 16.5041 20.8991C15.9233 20.5196 15.4707 19.9803 15.2033 19.3493C14.936 18.7183 14.8661 18.024 15.0024 17.3541C15.1386 16.6843 15.475 16.069 15.9689 15.586C16.4628 15.1031 17.0921 14.7742 17.7772 14.641C18.4623 14.5077 19.1724 14.5761 19.8177 14.8375C20.4631 15.0988 21.0147 15.5414 21.4027 16.1093C21.7908 16.6772 21.9979 17.3448 21.9979 18.0278C21.9967 18.9433 21.6242 19.8209 20.9622 20.4683C20.3001 21.1156 19.4025 21.4798 18.4662 21.4811ZM6.58243 27.9844L3.70717 23.1137C3.39498 22.5837 3.31047 21.9543 3.47217 21.3635C3.63386 20.7727 4.02857 20.2687 4.56975 19.962L6.98253 18.6004C7.07693 18.5392 7.15331 18.455 7.20406 18.3561C7.25482 18.2571 7.27817 18.1469 7.27179 18.0364C7.2802 17.9232 7.25788 17.8099 7.20708 17.7079C7.15628 17.6058 7.07882 17.5187 6.98253 17.4554L4.56975 16.0938C4.02835 15.7877 3.63339 15.284 3.47165 14.6933C3.3099 14.1026 3.39462 13.4733 3.70717 12.9437L6.58243 8.07292C6.89561 7.54375 7.41051 7.15751 8.01435 6.99879C8.6182 6.84008 9.26176 6.92182 9.80409 7.22613L12.2515 8.60809C12.3427 8.65256 12.444 8.67313 12.5458 8.66779C12.6475 8.66244 12.746 8.63137 12.8318 8.5776L12.8508 8.56576C12.9403 8.52085 13.016 8.45368 13.0705 8.37102C13.1249 8.28836 13.1561 8.19313 13.1609 8.09493V5.0668C13.1616 4.45525 13.4104 3.86894 13.8526 3.43651C14.2949 3.00408 14.8945 2.76083 15.52 2.76013H21.4125C22.0379 2.76083 22.6376 3.00408 23.0798 3.43651C23.5221 3.86894 23.7709 4.45525 23.7716 5.0668V8.09493C23.7766 8.19287 23.8077 8.28783 23.8617 8.37041C23.9158 8.45299 23.991 8.52033 24.0799 8.56576C24.1041 8.5793 24.1284 8.59285 24.1492 8.60639C24.2306 8.64921 24.3215 8.67177 24.414 8.67207C24.5064 8.67237 24.5975 8.65041 24.6792 8.60813L27.1266 7.22785C27.6691 6.92382 28.3126 6.84204 28.9166 7.00039C29.5205 7.15873 30.0359 7.54433 30.35 8.07296L33.2253 12.9437C33.5378 13.4733 33.6225 14.1026 33.4608 14.6933C33.299 15.284 32.904 15.7877 32.3627 16.0938L29.9759 17.4401C29.9497 17.455 29.9374 17.4832 29.9138 17.5011H27.9601C28.0262 17.1782 28.1609 16.8723 28.3553 16.6034C28.5498 16.3344 28.7997 16.1083 29.0891 15.9396L31.4759 14.5932C31.61 14.5169 31.7078 14.3918 31.7481 14.2453C31.7883 14.0987 31.7677 13.9425 31.6907 13.8108L28.8154 8.94004C28.7769 8.87442 28.7256 8.81689 28.6643 8.77077C28.603 8.72464 28.533 8.69085 28.4583 8.67132C28.3836 8.6518 28.3056 8.64693 28.229 8.65701C28.1523 8.66708 28.0785 8.6919 28.0117 8.73003L25.5678 10.1086C25.2043 10.3001 24.7967 10.3976 24.3838 10.3918C23.9708 10.3859 23.5663 10.2769 23.2086 10.0751C22.8509 9.87336 22.5519 9.58551 22.34 9.23892C22.1281 8.89234 22.0104 8.49854 21.998 8.09493V5.0668C21.9976 4.91509 21.9358 4.76971 21.8261 4.66244C21.7163 4.55517 21.5676 4.49474 21.4125 4.49437H15.52C15.3648 4.49476 15.2161 4.55519 15.1064 4.66246C14.9967 4.76973 14.9349 4.9151 14.9345 5.0668V8.09493C14.9319 8.49867 14.8193 8.89443 14.6083 9.24151C14.3973 9.58858 14.0956 9.87443 13.7342 10.0697C13.7082 10.0849 13.6805 10.0985 13.6528 10.112C13.3027 10.3032 12.9084 10.4033 12.5074 10.4027C12.1065 10.4021 11.7124 10.3008 11.363 10.1085L8.919 8.72834C8.78364 8.65375 8.62373 8.63413 8.47372 8.67373C8.32371 8.71333 8.19562 8.80897 8.11705 8.94004L5.24178 13.8108C5.16478 13.9425 5.14414 14.0987 5.18437 14.2453C5.2246 14.3918 5.32243 14.5169 5.45655 14.5932L7.86934 15.9549C8.22919 16.1744 8.52597 16.4799 8.73172 16.8426C8.93748 17.2052 9.04544 17.6131 9.04544 18.0278C9.04544 18.4426 8.93748 18.8505 8.73172 19.2131C8.52597 19.5758 8.22919 19.8812 7.86934 20.1008L5.45655 21.4624C5.32229 21.5391 5.2244 21.6645 5.18419 21.8113C5.14397 21.9581 5.16466 22.1146 5.24178 22.2466L8.11705 27.1173C8.19587 27.2481 8.32409 27.3434 8.47409 27.3827C8.62408 27.422 8.78386 27.4021 8.919 27.3273L11.3647 25.9471C11.7229 25.7457 12.1299 25.6422 12.5431 25.6472C12.9562 25.6523 13.3604 25.7658 13.7134 25.9758C13.7377 25.9894 13.7619 26.0029 13.7827 26.0165C14.1306 26.2151 14.4197 26.4987 14.6217 26.8396C14.8236 27.1805 14.9314 27.5668 14.9345 27.9607V30.9889C14.9349 31.1406 14.9967 31.2859 15.1064 31.3932C15.2161 31.5005 15.3648 31.5609 15.52 31.5613H18.4661V33.2955H15.52C14.8945 33.2948 14.2949 33.0516 13.8526 32.6191C13.4104 32.1867 13.1616 31.6004 13.1609 30.9889V27.9607C13.1561 27.8623 13.1247 27.7669 13.0699 27.6842C13.0152 27.6015 12.939 27.5345 12.8491 27.4899C12.7625 27.4319 12.6617 27.3974 12.557 27.39C12.4523 27.3825 12.3475 27.4024 12.2533 27.4476L9.80583 28.8278C9.26398 29.1339 8.61999 29.217 8.0155 29.0588C7.411 28.9007 6.89552 28.5142 6.58243 27.9844Z" fill="white"/>
</svg>
