<svg width="25" height="25" viewBox="0 0 25 25" fill="none" xmlns="http://www.w3.org/2000/svg">
<path d="M20.8672 20.8281H4.13281C3.25253 20.8271 2.40859 20.4769 1.78614 19.8545C1.16368 19.232 0.813534 18.3881 0.8125 17.5078V7.49219C0.813534 6.6119 1.16368 5.76797 1.78614 5.14551C2.40859 4.52306 3.25253 4.17291 4.13281 4.17188H20.8672C21.7475 4.17291 22.5914 4.52306 23.2139 5.14551C23.8363 5.76797 24.1865 6.6119 24.1875 7.49219V17.5078C24.1865 18.3881 23.8363 19.232 23.2139 19.8545C22.5914 20.4769 21.7475 20.8271 20.8672 20.8281ZM4.13281 5.34375C3.56301 5.34375 3.01655 5.5701 2.61364 5.97301C2.21073 6.37592 1.98438 6.92239 1.98438 7.49219V17.5078C1.98438 18.0776 2.21073 18.6241 2.61364 19.027C3.01655 19.4299 3.56301 19.6562 4.13281 19.6562H20.8672C21.437 19.6562 21.9835 19.4299 22.3864 19.027C22.7893 18.6241 23.0156 18.0776 23.0156 17.5078V7.49219C23.0156 6.92239 22.7893 6.37592 22.3864 5.97301C21.9835 5.5701 21.437 5.34375 20.8672 5.34375H4.13281Z" fill="#64CCC5"/>
<path d="M12.5001 14.8751C11.7772 14.8762 11.0737 14.6417 10.4962 14.2071L1.37507 7.30871C1.31062 7.26348 1.25595 7.20572 1.21433 7.1389C1.1727 7.07207 1.14497 6.99754 1.13279 6.91975C1.12061 6.84197 1.12423 6.76253 1.14343 6.68617C1.16264 6.60982 1.19703 6.53812 1.24457 6.47535C1.2921 6.41259 1.35179 6.36005 1.42009 6.32087C1.48838 6.28169 1.56386 6.25667 1.64204 6.24732C1.72021 6.23796 1.79947 6.24445 1.87508 6.26641C1.95069 6.28837 2.0211 6.32534 2.0821 6.37511L11.2032 13.2814C11.5778 13.561 12.0327 13.712 12.5001 13.712C12.9675 13.712 13.4224 13.561 13.7969 13.2814L22.918 6.37511C22.979 6.32534 23.0494 6.28837 23.1251 6.26641C23.2007 6.24445 23.2799 6.23796 23.3581 6.24732C23.4363 6.25667 23.5118 6.28169 23.58 6.32087C23.6483 6.36005 23.708 6.41259 23.7556 6.47535C23.8031 6.53812 23.8375 6.60982 23.8567 6.68617C23.8759 6.76253 23.8795 6.84197 23.8673 6.91975C23.8552 6.99754 23.8274 7.07207 23.7858 7.1389C23.7442 7.20572 23.6895 7.26348 23.6251 7.30871L14.504 14.2071C13.9264 14.6417 13.2229 14.8762 12.5001 14.8751Z" fill="#64CCC5"/>
<path d="M1.62879 19.1954C1.50995 19.1956 1.39387 19.1596 1.29595 19.0923C1.19802 19.0249 1.12289 18.9294 1.08051 18.8184C1.03813 18.7074 1.03052 18.5861 1.05868 18.4706C1.08683 18.3552 1.14943 18.251 1.23817 18.172L8.42567 11.7618C8.5417 11.6582 8.69413 11.6049 8.84944 11.6137C9.00474 11.6225 9.15019 11.6926 9.25379 11.8087C9.35739 11.9247 9.41066 12.0771 9.40186 12.2324C9.39307 12.3878 9.32295 12.5332 9.20692 12.6368L2.01942 19.047C1.91268 19.1441 1.77309 19.1971 1.62879 19.1954ZM23.371 19.1954C23.2267 19.1971 23.0871 19.1441 22.9804 19.047L15.7929 12.6368C15.6768 12.5332 15.6067 12.3878 15.5979 12.2324C15.5891 12.0771 15.6424 11.9247 15.746 11.8087C15.8496 11.6926 15.995 11.6225 16.1503 11.6137C16.3056 11.6049 16.4581 11.6582 16.5741 11.7618L23.7577 18.172C23.8464 18.251 23.909 18.3552 23.9372 18.4706C23.9653 18.5861 23.9577 18.7074 23.9154 18.8184C23.873 18.9294 23.7978 19.0249 23.6999 19.0923C23.602 19.1596 23.4859 19.1956 23.3671 19.1954H23.371Z" fill="#64CCC5"/>
</svg>
