<svg width="38" height="30" viewBox="0 0 38 30" fill="none" xmlns="http://www.w3.org/2000/svg">
<path d="M1.66394 14.9183C1.66394 10.548 1.66394 8.36292 2.37298 6.6375C3.3323 4.30303 5.18585 2.44949 7.52031 1.49017C9.24573 0.781128 11.4309 0.781128 15.8011 0.781128H22.8673C27.2376 0.781128 29.4227 0.781128 31.1481 1.49017C33.4826 2.44949 35.3361 4.30303 36.2954 6.6375C37.0045 8.36292 37.0045 10.548 37.0045 14.9183V14.9183C37.0045 19.2885 37.0045 21.4737 36.2954 23.1991C35.3361 25.5335 33.4826 27.3871 31.1481 28.3464C29.4227 29.0555 27.2376 29.0555 22.8673 29.0555H15.8011C11.4309 29.0555 9.24573 29.0555 7.52031 28.3464C5.18585 27.3871 3.3323 25.5335 2.37298 23.1991C1.66394 21.4737 1.66394 19.2885 1.66394 14.9183V14.9183Z" stroke="#FBFBFB" stroke-width="1.5" stroke-linejoin="round"/>
<path d="M1.66394 7.539L9.16052 13.1366C13.4991 16.3761 15.6684 17.9959 18.1264 18.3129C18.9288 18.4163 19.7412 18.4163 20.5435 18.3128C23.0016 17.9957 25.1708 16.3758 29.5092 13.1361L37.0045 7.539" stroke="#FBFBFB" stroke-width="1.5" stroke-linejoin="round"/>
</svg>
