<svg width="149" height="186" viewBox="0 0 149 186" fill="none" xmlns="http://www.w3.org/2000/svg">
<g clip-path="url(#clip0_4055_1569)">
<path d="M16.5654 9.91188L9.31527 7.68473L7.08812 0.434561C7.00876 0.176285 6.77017 0 6.5 0C6.22983 0 5.99124 0.176285 5.91188 0.434602L3.68473 7.68477L-3.56544 9.91192C-3.82371 9.99124 -4 10.2298 -4 10.5C-4 10.7702 -3.82371 11.0088 -3.56544 11.0881L3.68473 13.3153L5.91188 20.5654C5.99124 20.8237 6.22983 21 6.5 21C6.77017 21 7.00876 20.8237 7.08812 20.5654L9.31527 13.3152L16.5654 11.0881C16.8237 11.0088 17 10.7702 17 10.5C17 10.2298 16.8237 9.99124 16.5654 9.91188Z" fill="#666666"/>
</g>
<g clip-path="url(#clip1_4055_1569)">
<path d="M49.5654 9.91188L42.3153 7.68473L40.0881 0.434561C40.0088 0.176285 39.7702 0 39.5 0C39.2298 0 38.9912 0.176285 38.9119 0.434602L36.6847 7.68477L29.4346 9.91192C29.1763 9.99124 29 10.2298 29 10.5C29 10.7702 29.1763 11.0088 29.4346 11.0881L36.6847 13.3153L38.9119 20.5654C38.9912 20.8237 39.2298 21 39.5 21C39.7702 21 40.0088 20.8237 40.0881 20.5654L42.3153 13.3152L49.5654 11.0881C49.8237 11.0088 50 10.7702 50 10.5C50 10.2298 49.8237 9.99124 49.5654 9.91188Z" fill="#666666"/>
</g>
<g clip-path="url(#clip2_4055_1569)">
<path d="M82.5654 9.91188L75.3153 7.68473L73.0881 0.434561C73.0088 0.176285 72.7702 0 72.5 0C72.2298 0 71.9912 0.176285 71.9119 0.434602L69.6847 7.68477L62.4346 9.91192C62.1763 9.99124 62 10.2298 62 10.5C62 10.7702 62.1763 11.0088 62.4346 11.0881L69.6847 13.3153L71.9119 20.5654C71.9912 20.8237 72.2298 21 72.5 21C72.7702 21 73.0088 20.8237 73.0881 20.5654L75.3153 13.3152L82.5654 11.0881C82.8237 11.0088 83 10.7702 83 10.5C83 10.2298 82.8237 9.99124 82.5654 9.91188Z" fill="#666666"/>
</g>
<g clip-path="url(#clip3_4055_1569)">
<path d="M115.565 9.91188L108.315 7.68473L106.088 0.434561C106.009 0.176285 105.77 0 105.5 0C105.23 0 104.991 0.176285 104.912 0.434602L102.685 7.68477L95.4346 9.91192C95.1763 9.99124 95 10.2298 95 10.5C95 10.7702 95.1763 11.0088 95.4346 11.0881L102.685 13.3153L104.912 20.5654C104.991 20.8237 105.23 21 105.5 21C105.77 21 106.009 20.8237 106.088 20.5654L108.315 13.3152L115.565 11.0881C115.824 11.0088 116 10.7702 116 10.5C116 10.2298 115.824 9.99124 115.565 9.91188Z" fill="#666666"/>
</g>
<g clip-path="url(#clip4_4055_1569)">
<path d="M148.565 9.91188L141.315 7.68473L139.088 0.434561C139.009 0.176285 138.77 0 138.5 0C138.23 0 137.991 0.176285 137.912 0.434602L135.685 7.68477L128.435 9.91192C128.176 9.99124 128 10.2298 128 10.5C128 10.7702 128.176 11.0088 128.435 11.0881L135.685 13.3153L137.912 20.5654C137.991 20.8237 138.23 21 138.5 21C138.77 21 139.009 20.8237 139.088 20.5654L141.315 13.3152L148.565 11.0881C148.824 11.0088 149 10.7702 149 10.5C149 10.2298 148.824 9.99124 148.565 9.91188Z" fill="#666666"/>
</g>
<g clip-path="url(#clip5_4055_1569)">
<path d="M16.5654 42.9119L9.31527 40.6847L7.08812 33.4346C7.00876 33.1763 6.77017 33 6.5 33C6.22983 33 5.99124 33.1763 5.91188 33.4346L3.68473 40.6848L-3.56544 42.9119C-3.82371 42.9912 -4 43.2298 -4 43.5C-4 43.7702 -3.82371 44.0088 -3.56544 44.0881L3.68473 46.3153L5.91188 53.5654C5.99124 53.8237 6.22983 54 6.5 54C6.77017 54 7.00876 53.8237 7.08812 53.5654L9.31527 46.3152L16.5654 44.0881C16.8237 44.0088 17 43.7702 17 43.5C17 43.2298 16.8237 42.9912 16.5654 42.9119Z" fill="#666666"/>
</g>
<g clip-path="url(#clip6_4055_1569)">
<path d="M49.5654 42.9119L42.3153 40.6847L40.0881 33.4346C40.0088 33.1763 39.7702 33 39.5 33C39.2298 33 38.9912 33.1763 38.9119 33.4346L36.6847 40.6848L29.4346 42.9119C29.1763 42.9912 29 43.2298 29 43.5C29 43.7702 29.1763 44.0088 29.4346 44.0881L36.6847 46.3153L38.9119 53.5654C38.9912 53.8237 39.2298 54 39.5 54C39.7702 54 40.0088 53.8237 40.0881 53.5654L42.3153 46.3152L49.5654 44.0881C49.8237 44.0088 50 43.7702 50 43.5C50 43.2298 49.8237 42.9912 49.5654 42.9119Z" fill="#666666"/>
</g>
<g clip-path="url(#clip7_4055_1569)">
<path d="M82.5654 42.9119L75.3153 40.6847L73.0881 33.4346C73.0088 33.1763 72.7702 33 72.5 33C72.2298 33 71.9912 33.1763 71.9119 33.4346L69.6847 40.6848L62.4346 42.9119C62.1763 42.9912 62 43.2298 62 43.5C62 43.7702 62.1763 44.0088 62.4346 44.0881L69.6847 46.3153L71.9119 53.5654C71.9912 53.8237 72.2298 54 72.5 54C72.7702 54 73.0088 53.8237 73.0881 53.5654L75.3153 46.3152L82.5654 44.0881C82.8237 44.0088 83 43.7702 83 43.5C83 43.2298 82.8237 42.9912 82.5654 42.9119Z" fill="#666666"/>
</g>
<g clip-path="url(#clip8_4055_1569)">
<path d="M115.565 42.9119L108.315 40.6847L106.088 33.4346C106.009 33.1763 105.77 33 105.5 33C105.23 33 104.991 33.1763 104.912 33.4346L102.685 40.6848L95.4346 42.9119C95.1763 42.9912 95 43.2298 95 43.5C95 43.7702 95.1763 44.0088 95.4346 44.0881L102.685 46.3153L104.912 53.5654C104.991 53.8237 105.23 54 105.5 54C105.77 54 106.009 53.8237 106.088 53.5654L108.315 46.3152L115.565 44.0881C115.824 44.0088 116 43.7702 116 43.5C116 43.2298 115.824 42.9912 115.565 42.9119Z" fill="#666666"/>
</g>
<g clip-path="url(#clip9_4055_1569)">
<path d="M148.565 42.9119L141.315 40.6847L139.088 33.4346C139.009 33.1763 138.77 33 138.5 33C138.23 33 137.991 33.1763 137.912 33.4346L135.685 40.6848L128.435 42.9119C128.176 42.9912 128 43.2298 128 43.5C128 43.7702 128.176 44.0088 128.435 44.0881L135.685 46.3153L137.912 53.5654C137.991 53.8237 138.23 54 138.5 54C138.77 54 139.009 53.8237 139.088 53.5654L141.315 46.3152L148.565 44.0881C148.824 44.0088 149 43.7702 149 43.5C149 43.2298 148.824 42.9912 148.565 42.9119Z" fill="#666666"/>
</g>
<g clip-path="url(#clip10_4055_1569)">
<path d="M16.5654 75.9119L9.31527 73.6847L7.08812 66.4346C7.00876 66.1763 6.77017 66 6.5 66C6.22983 66 5.99124 66.1763 5.91188 66.4346L3.68473 73.6848L-3.56544 75.9119C-3.82371 75.9912 -4 76.2298 -4 76.5C-4 76.7702 -3.82371 77.0088 -3.56544 77.0881L3.68473 79.3153L5.91188 86.5654C5.99124 86.8237 6.22983 87 6.5 87C6.77017 87 7.00876 86.8237 7.08812 86.5654L9.31527 79.3152L16.5654 77.0881C16.8237 77.0088 17 76.7702 17 76.5C17 76.2298 16.8237 75.9912 16.5654 75.9119Z" fill="#666666"/>
</g>
<g clip-path="url(#clip11_4055_1569)">
<path d="M49.5654 75.9119L42.3153 73.6847L40.0881 66.4346C40.0088 66.1763 39.7702 66 39.5 66C39.2298 66 38.9912 66.1763 38.9119 66.4346L36.6847 73.6848L29.4346 75.9119C29.1763 75.9912 29 76.2298 29 76.5C29 76.7702 29.1763 77.0088 29.4346 77.0881L36.6847 79.3153L38.9119 86.5654C38.9912 86.8237 39.2298 87 39.5 87C39.7702 87 40.0088 86.8237 40.0881 86.5654L42.3153 79.3152L49.5654 77.0881C49.8237 77.0088 50 76.7702 50 76.5C50 76.2298 49.8237 75.9912 49.5654 75.9119Z" fill="#666666"/>
</g>
<g clip-path="url(#clip12_4055_1569)">
<path d="M82.5654 75.9119L75.3153 73.6847L73.0881 66.4346C73.0088 66.1763 72.7702 66 72.5 66C72.2298 66 71.9912 66.1763 71.9119 66.4346L69.6847 73.6848L62.4346 75.9119C62.1763 75.9912 62 76.2298 62 76.5C62 76.7702 62.1763 77.0088 62.4346 77.0881L69.6847 79.3153L71.9119 86.5654C71.9912 86.8237 72.2298 87 72.5 87C72.7702 87 73.0088 86.8237 73.0881 86.5654L75.3153 79.3152L82.5654 77.0881C82.8237 77.0088 83 76.7702 83 76.5C83 76.2298 82.8237 75.9912 82.5654 75.9119Z" fill="#666666"/>
</g>
<g clip-path="url(#clip13_4055_1569)">
<path d="M115.565 75.9119L108.315 73.6847L106.088 66.4346C106.009 66.1763 105.77 66 105.5 66C105.23 66 104.991 66.1763 104.912 66.4346L102.685 73.6848L95.4346 75.9119C95.1763 75.9912 95 76.2298 95 76.5C95 76.7702 95.1763 77.0088 95.4346 77.0881L102.685 79.3153L104.912 86.5654C104.991 86.8237 105.23 87 105.5 87C105.77 87 106.009 86.8237 106.088 86.5654L108.315 79.3152L115.565 77.0881C115.824 77.0088 116 76.7702 116 76.5C116 76.2298 115.824 75.9912 115.565 75.9119Z" fill="#666666"/>
</g>
<g clip-path="url(#clip14_4055_1569)">
<path d="M148.565 75.9119L141.315 73.6847L139.088 66.4346C139.009 66.1763 138.77 66 138.5 66C138.23 66 137.991 66.1763 137.912 66.4346L135.685 73.6848L128.435 75.9119C128.176 75.9912 128 76.2298 128 76.5C128 76.7702 128.176 77.0088 128.435 77.0881L135.685 79.3153L137.912 86.5654C137.991 86.8237 138.23 87 138.5 87C138.77 87 139.009 86.8237 139.088 86.5654L141.315 79.3152L148.565 77.0881C148.824 77.0088 149 76.7702 149 76.5C149 76.2298 148.824 75.9912 148.565 75.9119Z" fill="#666666"/>
</g>
<g clip-path="url(#clip15_4055_1569)">
<path d="M16.5654 108.912L9.31527 106.685L7.08812 99.4346C7.00876 99.1763 6.77017 99 6.5 99C6.22983 99 5.99124 99.1763 5.91188 99.4346L3.68473 106.685L-3.56544 108.912C-3.82371 108.991 -4 109.23 -4 109.5C-4 109.77 -3.82371 110.009 -3.56544 110.088L3.68473 112.315L5.91188 119.565C5.99124 119.824 6.22983 120 6.5 120C6.77017 120 7.00876 119.824 7.08812 119.565L9.31527 112.315L16.5654 110.088C16.8237 110.009 17 109.77 17 109.5C17 109.23 16.8237 108.991 16.5654 108.912Z" fill="#666666"/>
</g>
<g clip-path="url(#clip16_4055_1569)">
<path d="M49.5654 108.912L42.3153 106.685L40.0881 99.4346C40.0088 99.1763 39.7702 99 39.5 99C39.2298 99 38.9912 99.1763 38.9119 99.4346L36.6847 106.685L29.4346 108.912C29.1763 108.991 29 109.23 29 109.5C29 109.77 29.1763 110.009 29.4346 110.088L36.6847 112.315L38.9119 119.565C38.9912 119.824 39.2298 120 39.5 120C39.7702 120 40.0088 119.824 40.0881 119.565L42.3153 112.315L49.5654 110.088C49.8237 110.009 50 109.77 50 109.5C50 109.23 49.8237 108.991 49.5654 108.912Z" fill="#666666"/>
</g>
<g clip-path="url(#clip17_4055_1569)">
<path d="M82.5654 108.912L75.3153 106.685L73.0881 99.4346C73.0088 99.1763 72.7702 99 72.5 99C72.2298 99 71.9912 99.1763 71.9119 99.4346L69.6847 106.685L62.4346 108.912C62.1763 108.991 62 109.23 62 109.5C62 109.77 62.1763 110.009 62.4346 110.088L69.6847 112.315L71.9119 119.565C71.9912 119.824 72.2298 120 72.5 120C72.7702 120 73.0088 119.824 73.0881 119.565L75.3153 112.315L82.5654 110.088C82.8237 110.009 83 109.77 83 109.5C83 109.23 82.8237 108.991 82.5654 108.912Z" fill="#666666"/>
</g>
<g clip-path="url(#clip18_4055_1569)">
<path d="M115.565 108.912L108.315 106.685L106.088 99.4346C106.009 99.1763 105.77 99 105.5 99C105.23 99 104.991 99.1763 104.912 99.4346L102.685 106.685L95.4346 108.912C95.1763 108.991 95 109.23 95 109.5C95 109.77 95.1763 110.009 95.4346 110.088L102.685 112.315L104.912 119.565C104.991 119.824 105.23 120 105.5 120C105.77 120 106.009 119.824 106.088 119.565L108.315 112.315L115.565 110.088C115.824 110.009 116 109.77 116 109.5C116 109.23 115.824 108.991 115.565 108.912Z" fill="#666666"/>
</g>
<g clip-path="url(#clip19_4055_1569)">
<path d="M148.565 108.912L141.315 106.685L139.088 99.4346C139.009 99.1763 138.77 99 138.5 99C138.23 99 137.991 99.1763 137.912 99.4346L135.685 106.685L128.435 108.912C128.176 108.991 128 109.23 128 109.5C128 109.77 128.176 110.009 128.435 110.088L135.685 112.315L137.912 119.565C137.991 119.824 138.23 120 138.5 120C138.77 120 139.009 119.824 139.088 119.565L141.315 112.315L148.565 110.088C148.824 110.009 149 109.77 149 109.5C149 109.23 148.824 108.991 148.565 108.912Z" fill="#666666"/>
</g>
<g clip-path="url(#clip20_4055_1569)">
<path d="M16.5654 141.912L9.31527 139.685L7.08812 132.435C7.00876 132.176 6.77017 132 6.5 132C6.22983 132 5.99124 132.176 5.91188 132.435L3.68473 139.685L-3.56544 141.912C-3.82371 141.991 -4 142.23 -4 142.5C-4 142.77 -3.82371 143.009 -3.56544 143.088L3.68473 145.315L5.91188 152.565C5.99124 152.824 6.22983 153 6.5 153C6.77017 153 7.00876 152.824 7.08812 152.565L9.31527 145.315L16.5654 143.088C16.8237 143.009 17 142.77 17 142.5C17 142.23 16.8237 141.991 16.5654 141.912Z" fill="#666666"/>
</g>
<g clip-path="url(#clip21_4055_1569)">
<path d="M49.5654 141.912L42.3153 139.685L40.0881 132.435C40.0088 132.176 39.7702 132 39.5 132C39.2298 132 38.9912 132.176 38.9119 132.435L36.6847 139.685L29.4346 141.912C29.1763 141.991 29 142.23 29 142.5C29 142.77 29.1763 143.009 29.4346 143.088L36.6847 145.315L38.9119 152.565C38.9912 152.824 39.2298 153 39.5 153C39.7702 153 40.0088 152.824 40.0881 152.565L42.3153 145.315L49.5654 143.088C49.8237 143.009 50 142.77 50 142.5C50 142.23 49.8237 141.991 49.5654 141.912Z" fill="#666666"/>
</g>
<g clip-path="url(#clip22_4055_1569)">
<path d="M82.5654 141.912L75.3153 139.685L73.0881 132.435C73.0088 132.176 72.7702 132 72.5 132C72.2298 132 71.9912 132.176 71.9119 132.435L69.6847 139.685L62.4346 141.912C62.1763 141.991 62 142.23 62 142.5C62 142.77 62.1763 143.009 62.4346 143.088L69.6847 145.315L71.9119 152.565C71.9912 152.824 72.2298 153 72.5 153C72.7702 153 73.0088 152.824 73.0881 152.565L75.3153 145.315L82.5654 143.088C82.8237 143.009 83 142.77 83 142.5C83 142.23 82.8237 141.991 82.5654 141.912Z" fill="#666666"/>
</g>
<g clip-path="url(#clip23_4055_1569)">
<path d="M115.565 141.912L108.315 139.685L106.088 132.435C106.009 132.176 105.77 132 105.5 132C105.23 132 104.991 132.176 104.912 132.435L102.685 139.685L95.4346 141.912C95.1763 141.991 95 142.23 95 142.5C95 142.77 95.1763 143.009 95.4346 143.088L102.685 145.315L104.912 152.565C104.991 152.824 105.23 153 105.5 153C105.77 153 106.009 152.824 106.088 152.565L108.315 145.315L115.565 143.088C115.824 143.009 116 142.77 116 142.5C116 142.23 115.824 141.991 115.565 141.912Z" fill="#666666"/>
</g>
<g clip-path="url(#clip24_4055_1569)">
<path d="M148.565 141.912L141.315 139.685L139.088 132.435C139.009 132.176 138.77 132 138.5 132C138.23 132 137.991 132.176 137.912 132.435L135.685 139.685L128.435 141.912C128.176 141.991 128 142.23 128 142.5C128 142.77 128.176 143.009 128.435 143.088L135.685 145.315L137.912 152.565C137.991 152.824 138.23 153 138.5 153C138.77 153 139.009 152.824 139.088 152.565L141.315 145.315L148.565 143.088C148.824 143.009 149 142.77 149 142.5C149 142.23 148.824 141.991 148.565 141.912Z" fill="#666666"/>
</g>
<g clip-path="url(#clip25_4055_1569)">
<path d="M16.5654 174.912L9.31527 172.685L7.08812 165.435C7.00876 165.176 6.77017 165 6.5 165C6.22983 165 5.99124 165.176 5.91188 165.435L3.68473 172.685L-3.56544 174.912C-3.82371 174.991 -4 175.23 -4 175.5C-4 175.77 -3.82371 176.009 -3.56544 176.088L3.68473 178.315L5.91188 185.565C5.99124 185.824 6.22983 186 6.5 186C6.77017 186 7.00876 185.824 7.08812 185.565L9.31527 178.315L16.5654 176.088C16.8237 176.009 17 175.77 17 175.5C17 175.23 16.8237 174.991 16.5654 174.912Z" fill="#666666"/>
</g>
<g clip-path="url(#clip26_4055_1569)">
<path d="M49.5654 174.912L42.3153 172.685L40.0881 165.435C40.0088 165.176 39.7702 165 39.5 165C39.2298 165 38.9912 165.176 38.9119 165.435L36.6847 172.685L29.4346 174.912C29.1763 174.991 29 175.23 29 175.5C29 175.77 29.1763 176.009 29.4346 176.088L36.6847 178.315L38.9119 185.565C38.9912 185.824 39.2298 186 39.5 186C39.7702 186 40.0088 185.824 40.0881 185.565L42.3153 178.315L49.5654 176.088C49.8237 176.009 50 175.77 50 175.5C50 175.23 49.8237 174.991 49.5654 174.912Z" fill="#666666"/>
</g>
<g clip-path="url(#clip27_4055_1569)">
<path d="M82.5654 174.912L75.3153 172.685L73.0881 165.435C73.0088 165.176 72.7702 165 72.5 165C72.2298 165 71.9912 165.176 71.9119 165.435L69.6847 172.685L62.4346 174.912C62.1763 174.991 62 175.23 62 175.5C62 175.77 62.1763 176.009 62.4346 176.088L69.6847 178.315L71.9119 185.565C71.9912 185.824 72.2298 186 72.5 186C72.7702 186 73.0088 185.824 73.0881 185.565L75.3153 178.315L82.5654 176.088C82.8237 176.009 83 175.77 83 175.5C83 175.23 82.8237 174.991 82.5654 174.912Z" fill="#666666"/>
</g>
<g clip-path="url(#clip28_4055_1569)">
<path d="M115.565 174.912L108.315 172.685L106.088 165.435C106.009 165.176 105.77 165 105.5 165C105.23 165 104.991 165.176 104.912 165.435L102.685 172.685L95.4346 174.912C95.1763 174.991 95 175.23 95 175.5C95 175.77 95.1763 176.009 95.4346 176.088L102.685 178.315L104.912 185.565C104.991 185.824 105.23 186 105.5 186C105.77 186 106.009 185.824 106.088 185.565L108.315 178.315L115.565 176.088C115.824 176.009 116 175.77 116 175.5C116 175.23 115.824 174.991 115.565 174.912Z" fill="#666666"/>
</g>
<g clip-path="url(#clip29_4055_1569)">
<path d="M148.565 174.912L141.315 172.685L139.088 165.435C139.009 165.176 138.77 165 138.5 165C138.23 165 137.991 165.176 137.912 165.435L135.685 172.685L128.435 174.912C128.176 174.991 128 175.23 128 175.5C128 175.77 128.176 176.009 128.435 176.088L135.685 178.315L137.912 185.565C137.991 185.824 138.23 186 138.5 186C138.77 186 139.009 185.824 139.088 185.565L141.315 178.315L148.565 176.088C148.824 176.009 149 175.77 149 175.5C149 175.23 148.824 174.991 148.565 174.912Z" fill="#666666"/>
</g>
<defs>
<clipPath id="clip0_4055_1569">
<rect width="21" height="21" fill="white" transform="translate(-4)"/>
</clipPath>
<clipPath id="clip1_4055_1569">
<rect width="21" height="21" fill="white" transform="translate(29)"/>
</clipPath>
<clipPath id="clip2_4055_1569">
<rect width="21" height="21" fill="white" transform="translate(62)"/>
</clipPath>
<clipPath id="clip3_4055_1569">
<rect width="21" height="21" fill="white" transform="translate(95)"/>
</clipPath>
<clipPath id="clip4_4055_1569">
<rect width="21" height="21" fill="white" transform="translate(128)"/>
</clipPath>
<clipPath id="clip5_4055_1569">
<rect width="21" height="21" fill="white" transform="translate(-4 33)"/>
</clipPath>
<clipPath id="clip6_4055_1569">
<rect width="21" height="21" fill="white" transform="translate(29 33)"/>
</clipPath>
<clipPath id="clip7_4055_1569">
<rect width="21" height="21" fill="white" transform="translate(62 33)"/>
</clipPath>
<clipPath id="clip8_4055_1569">
<rect width="21" height="21" fill="white" transform="translate(95 33)"/>
</clipPath>
<clipPath id="clip9_4055_1569">
<rect width="21" height="21" fill="white" transform="translate(128 33)"/>
</clipPath>
<clipPath id="clip10_4055_1569">
<rect width="21" height="21" fill="white" transform="translate(-4 66)"/>
</clipPath>
<clipPath id="clip11_4055_1569">
<rect width="21" height="21" fill="white" transform="translate(29 66)"/>
</clipPath>
<clipPath id="clip12_4055_1569">
<rect width="21" height="21" fill="white" transform="translate(62 66)"/>
</clipPath>
<clipPath id="clip13_4055_1569">
<rect width="21" height="21" fill="white" transform="translate(95 66)"/>
</clipPath>
<clipPath id="clip14_4055_1569">
<rect width="21" height="21" fill="white" transform="translate(128 66)"/>
</clipPath>
<clipPath id="clip15_4055_1569">
<rect width="21" height="21" fill="white" transform="translate(-4 99)"/>
</clipPath>
<clipPath id="clip16_4055_1569">
<rect width="21" height="21" fill="white" transform="translate(29 99)"/>
</clipPath>
<clipPath id="clip17_4055_1569">
<rect width="21" height="21" fill="white" transform="translate(62 99)"/>
</clipPath>
<clipPath id="clip18_4055_1569">
<rect width="21" height="21" fill="white" transform="translate(95 99)"/>
</clipPath>
<clipPath id="clip19_4055_1569">
<rect width="21" height="21" fill="white" transform="translate(128 99)"/>
</clipPath>
<clipPath id="clip20_4055_1569">
<rect width="21" height="21" fill="white" transform="translate(-4 132)"/>
</clipPath>
<clipPath id="clip21_4055_1569">
<rect width="21" height="21" fill="white" transform="translate(29 132)"/>
</clipPath>
<clipPath id="clip22_4055_1569">
<rect width="21" height="21" fill="white" transform="translate(62 132)"/>
</clipPath>
<clipPath id="clip23_4055_1569">
<rect width="21" height="21" fill="white" transform="translate(95 132)"/>
</clipPath>
<clipPath id="clip24_4055_1569">
<rect width="21" height="21" fill="white" transform="translate(128 132)"/>
</clipPath>
<clipPath id="clip25_4055_1569">
<rect width="21" height="21" fill="white" transform="translate(-4 165)"/>
</clipPath>
<clipPath id="clip26_4055_1569">
<rect width="21" height="21" fill="white" transform="translate(29 165)"/>
</clipPath>
<clipPath id="clip27_4055_1569">
<rect width="21" height="21" fill="white" transform="translate(62 165)"/>
</clipPath>
<clipPath id="clip28_4055_1569">
<rect width="21" height="21" fill="white" transform="translate(95 165)"/>
</clipPath>
<clipPath id="clip29_4055_1569">
<rect width="21" height="21" fill="white" transform="translate(128 165)"/>
</clipPath>
</defs>
</svg>
