<svg width="186" height="186" viewBox="0 0 186 186" fill="none" xmlns="http://www.w3.org/2000/svg">
<g clip-path="url(#clip0_4055_188)">
<path d="M20.5654 9.91188L13.3153 7.68473L11.0881 0.434561C11.0088 0.176285 10.7702 0 10.5 0C10.2298 0 9.99124 0.176285 9.91188 0.434602L7.68473 7.68477L0.434561 9.91192C0.176285 9.99124 0 10.2298 0 10.5C0 10.7702 0.176285 11.0088 0.434561 11.0881L7.68473 13.3153L9.91188 20.5654C9.99124 20.8237 10.2298 21 10.5 21C10.7702 21 11.0088 20.8237 11.0881 20.5654L13.3153 13.3152L20.5654 11.0881C20.8237 11.0088 21 10.7702 21 10.5C21 10.2298 20.8237 9.99124 20.5654 9.91188Z" fill="#666666"/>
</g>
<g clip-path="url(#clip1_4055_188)">
<path d="M53.5654 9.91188L46.3153 7.68473L44.0881 0.434561C44.0088 0.176285 43.7702 0 43.5 0C43.2298 0 42.9912 0.176285 42.9119 0.434602L40.6847 7.68477L33.4346 9.91192C33.1763 9.99124 33 10.2298 33 10.5C33 10.7702 33.1763 11.0088 33.4346 11.0881L40.6847 13.3153L42.9119 20.5654C42.9912 20.8237 43.2298 21 43.5 21C43.7702 21 44.0088 20.8237 44.0881 20.5654L46.3153 13.3152L53.5654 11.0881C53.8237 11.0088 54 10.7702 54 10.5C54 10.2298 53.8237 9.99124 53.5654 9.91188Z" fill="#666666"/>
</g>
<g clip-path="url(#clip2_4055_188)">
<path d="M86.5654 9.91188L79.3153 7.68473L77.0881 0.434561C77.0088 0.176285 76.7702 0 76.5 0C76.2298 0 75.9912 0.176285 75.9119 0.434602L73.6847 7.68477L66.4346 9.91192C66.1763 9.99124 66 10.2298 66 10.5C66 10.7702 66.1763 11.0088 66.4346 11.0881L73.6847 13.3153L75.9119 20.5654C75.9912 20.8237 76.2298 21 76.5 21C76.7702 21 77.0088 20.8237 77.0881 20.5654L79.3153 13.3152L86.5654 11.0881C86.8237 11.0088 87 10.7702 87 10.5C87 10.2298 86.8237 9.99124 86.5654 9.91188Z" fill="#666666"/>
</g>
<g clip-path="url(#clip3_4055_188)">
<path d="M119.565 9.91188L112.315 7.68473L110.088 0.434561C110.009 0.176285 109.77 0 109.5 0C109.23 0 108.991 0.176285 108.912 0.434602L106.685 7.68477L99.4346 9.91192C99.1763 9.99124 99 10.2298 99 10.5C99 10.7702 99.1763 11.0088 99.4346 11.0881L106.685 13.3153L108.912 20.5654C108.991 20.8237 109.23 21 109.5 21C109.77 21 110.009 20.8237 110.088 20.5654L112.315 13.3152L119.565 11.0881C119.824 11.0088 120 10.7702 120 10.5C120 10.2298 119.824 9.99124 119.565 9.91188Z" fill="#666666"/>
</g>
<g clip-path="url(#clip4_4055_188)">
<path d="M152.565 9.91188L145.315 7.68473L143.088 0.434561C143.009 0.176285 142.77 0 142.5 0C142.23 0 141.991 0.176285 141.912 0.434602L139.685 7.68477L132.435 9.91192C132.176 9.99124 132 10.2298 132 10.5C132 10.7702 132.176 11.0088 132.435 11.0881L139.685 13.3153L141.912 20.5654C141.991 20.8237 142.23 21 142.5 21C142.77 21 143.009 20.8237 143.088 20.5654L145.315 13.3152L152.565 11.0881C152.824 11.0088 153 10.7702 153 10.5C153 10.2298 152.824 9.99124 152.565 9.91188Z" fill="#666666"/>
</g>
<g clip-path="url(#clip5_4055_188)">
<path d="M185.565 9.91188L178.315 7.68473L176.088 0.434561C176.009 0.176285 175.77 0 175.5 0C175.23 0 174.991 0.176285 174.912 0.434602L172.685 7.68477L165.435 9.91192C165.176 9.99124 165 10.2298 165 10.5C165 10.7702 165.176 11.0088 165.435 11.0881L172.685 13.3153L174.912 20.5654C174.991 20.8237 175.23 21 175.5 21C175.77 21 176.009 20.8237 176.088 20.5654L178.315 13.3152L185.565 11.0881C185.824 11.0088 186 10.7702 186 10.5C186 10.2298 185.824 9.99124 185.565 9.91188Z" fill="#666666"/>
</g>
<g clip-path="url(#clip6_4055_188)">
<path d="M20.5654 42.9119L13.3153 40.6847L11.0881 33.4346C11.0088 33.1763 10.7702 33 10.5 33C10.2298 33 9.99124 33.1763 9.91188 33.4346L7.68473 40.6848L0.434561 42.9119C0.176285 42.9912 0 43.2298 0 43.5C0 43.7702 0.176285 44.0088 0.434561 44.0881L7.68473 46.3153L9.91188 53.5654C9.99124 53.8237 10.2298 54 10.5 54C10.7702 54 11.0088 53.8237 11.0881 53.5654L13.3153 46.3152L20.5654 44.0881C20.8237 44.0088 21 43.7702 21 43.5C21 43.2298 20.8237 42.9912 20.5654 42.9119Z" fill="#666666"/>
</g>
<g clip-path="url(#clip7_4055_188)">
<path d="M53.5654 42.9119L46.3153 40.6847L44.0881 33.4346C44.0088 33.1763 43.7702 33 43.5 33C43.2298 33 42.9912 33.1763 42.9119 33.4346L40.6847 40.6848L33.4346 42.9119C33.1763 42.9912 33 43.2298 33 43.5C33 43.7702 33.1763 44.0088 33.4346 44.0881L40.6847 46.3153L42.9119 53.5654C42.9912 53.8237 43.2298 54 43.5 54C43.7702 54 44.0088 53.8237 44.0881 53.5654L46.3153 46.3152L53.5654 44.0881C53.8237 44.0088 54 43.7702 54 43.5C54 43.2298 53.8237 42.9912 53.5654 42.9119Z" fill="#666666"/>
</g>
<g clip-path="url(#clip8_4055_188)">
<path d="M86.5654 42.9119L79.3153 40.6847L77.0881 33.4346C77.0088 33.1763 76.7702 33 76.5 33C76.2298 33 75.9912 33.1763 75.9119 33.4346L73.6847 40.6848L66.4346 42.9119C66.1763 42.9912 66 43.2298 66 43.5C66 43.7702 66.1763 44.0088 66.4346 44.0881L73.6847 46.3153L75.9119 53.5654C75.9912 53.8237 76.2298 54 76.5 54C76.7702 54 77.0088 53.8237 77.0881 53.5654L79.3153 46.3152L86.5654 44.0881C86.8237 44.0088 87 43.7702 87 43.5C87 43.2298 86.8237 42.9912 86.5654 42.9119Z" fill="#666666"/>
</g>
<g clip-path="url(#clip9_4055_188)">
<path d="M119.565 42.9119L112.315 40.6847L110.088 33.4346C110.009 33.1763 109.77 33 109.5 33C109.23 33 108.991 33.1763 108.912 33.4346L106.685 40.6848L99.4346 42.9119C99.1763 42.9912 99 43.2298 99 43.5C99 43.7702 99.1763 44.0088 99.4346 44.0881L106.685 46.3153L108.912 53.5654C108.991 53.8237 109.23 54 109.5 54C109.77 54 110.009 53.8237 110.088 53.5654L112.315 46.3152L119.565 44.0881C119.824 44.0088 120 43.7702 120 43.5C120 43.2298 119.824 42.9912 119.565 42.9119Z" fill="#666666"/>
</g>
<g clip-path="url(#clip10_4055_188)">
<path d="M152.565 42.9119L145.315 40.6847L143.088 33.4346C143.009 33.1763 142.77 33 142.5 33C142.23 33 141.991 33.1763 141.912 33.4346L139.685 40.6848L132.435 42.9119C132.176 42.9912 132 43.2298 132 43.5C132 43.7702 132.176 44.0088 132.435 44.0881L139.685 46.3153L141.912 53.5654C141.991 53.8237 142.23 54 142.5 54C142.77 54 143.009 53.8237 143.088 53.5654L145.315 46.3152L152.565 44.0881C152.824 44.0088 153 43.7702 153 43.5C153 43.2298 152.824 42.9912 152.565 42.9119Z" fill="#666666"/>
</g>
<g clip-path="url(#clip11_4055_188)">
<path d="M185.565 42.9119L178.315 40.6847L176.088 33.4346C176.009 33.1763 175.77 33 175.5 33C175.23 33 174.991 33.1763 174.912 33.4346L172.685 40.6848L165.435 42.9119C165.176 42.9912 165 43.2298 165 43.5C165 43.7702 165.176 44.0088 165.435 44.0881L172.685 46.3153L174.912 53.5654C174.991 53.8237 175.23 54 175.5 54C175.77 54 176.009 53.8237 176.088 53.5654L178.315 46.3152L185.565 44.0881C185.824 44.0088 186 43.7702 186 43.5C186 43.2298 185.824 42.9912 185.565 42.9119Z" fill="#666666"/>
</g>
<g clip-path="url(#clip12_4055_188)">
<path d="M20.5654 75.9119L13.3153 73.6847L11.0881 66.4346C11.0088 66.1763 10.7702 66 10.5 66C10.2298 66 9.99124 66.1763 9.91188 66.4346L7.68473 73.6848L0.434561 75.9119C0.176285 75.9912 0 76.2298 0 76.5C0 76.7702 0.176285 77.0088 0.434561 77.0881L7.68473 79.3153L9.91188 86.5654C9.99124 86.8237 10.2298 87 10.5 87C10.7702 87 11.0088 86.8237 11.0881 86.5654L13.3153 79.3152L20.5654 77.0881C20.8237 77.0088 21 76.7702 21 76.5C21 76.2298 20.8237 75.9912 20.5654 75.9119Z" fill="#666666"/>
</g>
<g clip-path="url(#clip13_4055_188)">
<path d="M53.5654 75.9119L46.3153 73.6847L44.0881 66.4346C44.0088 66.1763 43.7702 66 43.5 66C43.2298 66 42.9912 66.1763 42.9119 66.4346L40.6847 73.6848L33.4346 75.9119C33.1763 75.9912 33 76.2298 33 76.5C33 76.7702 33.1763 77.0088 33.4346 77.0881L40.6847 79.3153L42.9119 86.5654C42.9912 86.8237 43.2298 87 43.5 87C43.7702 87 44.0088 86.8237 44.0881 86.5654L46.3153 79.3152L53.5654 77.0881C53.8237 77.0088 54 76.7702 54 76.5C54 76.2298 53.8237 75.9912 53.5654 75.9119Z" fill="#666666"/>
</g>
<g clip-path="url(#clip14_4055_188)">
<path d="M86.5654 75.9119L79.3153 73.6847L77.0881 66.4346C77.0088 66.1763 76.7702 66 76.5 66C76.2298 66 75.9912 66.1763 75.9119 66.4346L73.6847 73.6848L66.4346 75.9119C66.1763 75.9912 66 76.2298 66 76.5C66 76.7702 66.1763 77.0088 66.4346 77.0881L73.6847 79.3153L75.9119 86.5654C75.9912 86.8237 76.2298 87 76.5 87C76.7702 87 77.0088 86.8237 77.0881 86.5654L79.3153 79.3152L86.5654 77.0881C86.8237 77.0088 87 76.7702 87 76.5C87 76.2298 86.8237 75.9912 86.5654 75.9119Z" fill="#666666"/>
</g>
<g clip-path="url(#clip15_4055_188)">
<path d="M119.565 75.9119L112.315 73.6847L110.088 66.4346C110.009 66.1763 109.77 66 109.5 66C109.23 66 108.991 66.1763 108.912 66.4346L106.685 73.6848L99.4346 75.9119C99.1763 75.9912 99 76.2298 99 76.5C99 76.7702 99.1763 77.0088 99.4346 77.0881L106.685 79.3153L108.912 86.5654C108.991 86.8237 109.23 87 109.5 87C109.77 87 110.009 86.8237 110.088 86.5654L112.315 79.3152L119.565 77.0881C119.824 77.0088 120 76.7702 120 76.5C120 76.2298 119.824 75.9912 119.565 75.9119Z" fill="#666666"/>
</g>
<g clip-path="url(#clip16_4055_188)">
<path d="M152.565 75.9119L145.315 73.6847L143.088 66.4346C143.009 66.1763 142.77 66 142.5 66C142.23 66 141.991 66.1763 141.912 66.4346L139.685 73.6848L132.435 75.9119C132.176 75.9912 132 76.2298 132 76.5C132 76.7702 132.176 77.0088 132.435 77.0881L139.685 79.3153L141.912 86.5654C141.991 86.8237 142.23 87 142.5 87C142.77 87 143.009 86.8237 143.088 86.5654L145.315 79.3152L152.565 77.0881C152.824 77.0088 153 76.7702 153 76.5C153 76.2298 152.824 75.9912 152.565 75.9119Z" fill="#666666"/>
</g>
<g clip-path="url(#clip17_4055_188)">
<path d="M185.565 75.9119L178.315 73.6847L176.088 66.4346C176.009 66.1763 175.77 66 175.5 66C175.23 66 174.991 66.1763 174.912 66.4346L172.685 73.6848L165.435 75.9119C165.176 75.9912 165 76.2298 165 76.5C165 76.7702 165.176 77.0088 165.435 77.0881L172.685 79.3153L174.912 86.5654C174.991 86.8237 175.23 87 175.5 87C175.77 87 176.009 86.8237 176.088 86.5654L178.315 79.3152L185.565 77.0881C185.824 77.0088 186 76.7702 186 76.5C186 76.2298 185.824 75.9912 185.565 75.9119Z" fill="#666666"/>
</g>
<g clip-path="url(#clip18_4055_188)">
<path d="M20.5654 108.912L13.3153 106.685L11.0881 99.4346C11.0088 99.1763 10.7702 99 10.5 99C10.2298 99 9.99124 99.1763 9.91188 99.4346L7.68473 106.685L0.434561 108.912C0.176285 108.991 0 109.23 0 109.5C0 109.77 0.176285 110.009 0.434561 110.088L7.68473 112.315L9.91188 119.565C9.99124 119.824 10.2298 120 10.5 120C10.7702 120 11.0088 119.824 11.0881 119.565L13.3153 112.315L20.5654 110.088C20.8237 110.009 21 109.77 21 109.5C21 109.23 20.8237 108.991 20.5654 108.912Z" fill="#666666"/>
</g>
<g clip-path="url(#clip19_4055_188)">
<path d="M53.5654 108.912L46.3153 106.685L44.0881 99.4346C44.0088 99.1763 43.7702 99 43.5 99C43.2298 99 42.9912 99.1763 42.9119 99.4346L40.6847 106.685L33.4346 108.912C33.1763 108.991 33 109.23 33 109.5C33 109.77 33.1763 110.009 33.4346 110.088L40.6847 112.315L42.9119 119.565C42.9912 119.824 43.2298 120 43.5 120C43.7702 120 44.0088 119.824 44.0881 119.565L46.3153 112.315L53.5654 110.088C53.8237 110.009 54 109.77 54 109.5C54 109.23 53.8237 108.991 53.5654 108.912Z" fill="#666666"/>
</g>
<g clip-path="url(#clip20_4055_188)">
<path d="M86.5654 108.912L79.3153 106.685L77.0881 99.4346C77.0088 99.1763 76.7702 99 76.5 99C76.2298 99 75.9912 99.1763 75.9119 99.4346L73.6847 106.685L66.4346 108.912C66.1763 108.991 66 109.23 66 109.5C66 109.77 66.1763 110.009 66.4346 110.088L73.6847 112.315L75.9119 119.565C75.9912 119.824 76.2298 120 76.5 120C76.7702 120 77.0088 119.824 77.0881 119.565L79.3153 112.315L86.5654 110.088C86.8237 110.009 87 109.77 87 109.5C87 109.23 86.8237 108.991 86.5654 108.912Z" fill="#666666"/>
</g>
<g clip-path="url(#clip21_4055_188)">
<path d="M119.565 108.912L112.315 106.685L110.088 99.4346C110.009 99.1763 109.77 99 109.5 99C109.23 99 108.991 99.1763 108.912 99.4346L106.685 106.685L99.4346 108.912C99.1763 108.991 99 109.23 99 109.5C99 109.77 99.1763 110.009 99.4346 110.088L106.685 112.315L108.912 119.565C108.991 119.824 109.23 120 109.5 120C109.77 120 110.009 119.824 110.088 119.565L112.315 112.315L119.565 110.088C119.824 110.009 120 109.77 120 109.5C120 109.23 119.824 108.991 119.565 108.912Z" fill="#666666"/>
</g>
<g clip-path="url(#clip22_4055_188)">
<path d="M152.565 108.912L145.315 106.685L143.088 99.4346C143.009 99.1763 142.77 99 142.5 99C142.23 99 141.991 99.1763 141.912 99.4346L139.685 106.685L132.435 108.912C132.176 108.991 132 109.23 132 109.5C132 109.77 132.176 110.009 132.435 110.088L139.685 112.315L141.912 119.565C141.991 119.824 142.23 120 142.5 120C142.77 120 143.009 119.824 143.088 119.565L145.315 112.315L152.565 110.088C152.824 110.009 153 109.77 153 109.5C153 109.23 152.824 108.991 152.565 108.912Z" fill="#666666"/>
</g>
<g clip-path="url(#clip23_4055_188)">
<path d="M185.565 108.912L178.315 106.685L176.088 99.4346C176.009 99.1763 175.77 99 175.5 99C175.23 99 174.991 99.1763 174.912 99.4346L172.685 106.685L165.435 108.912C165.176 108.991 165 109.23 165 109.5C165 109.77 165.176 110.009 165.435 110.088L172.685 112.315L174.912 119.565C174.991 119.824 175.23 120 175.5 120C175.77 120 176.009 119.824 176.088 119.565L178.315 112.315L185.565 110.088C185.824 110.009 186 109.77 186 109.5C186 109.23 185.824 108.991 185.565 108.912Z" fill="#666666"/>
</g>
<g clip-path="url(#clip24_4055_188)">
<path d="M20.5654 141.912L13.3153 139.685L11.0881 132.435C11.0088 132.176 10.7702 132 10.5 132C10.2298 132 9.99124 132.176 9.91188 132.435L7.68473 139.685L0.434561 141.912C0.176285 141.991 0 142.23 0 142.5C0 142.77 0.176285 143.009 0.434561 143.088L7.68473 145.315L9.91188 152.565C9.99124 152.824 10.2298 153 10.5 153C10.7702 153 11.0088 152.824 11.0881 152.565L13.3153 145.315L20.5654 143.088C20.8237 143.009 21 142.77 21 142.5C21 142.23 20.8237 141.991 20.5654 141.912Z" fill="#666666"/>
</g>
<g clip-path="url(#clip25_4055_188)">
<path d="M53.5654 141.912L46.3153 139.685L44.0881 132.435C44.0088 132.176 43.7702 132 43.5 132C43.2298 132 42.9912 132.176 42.9119 132.435L40.6847 139.685L33.4346 141.912C33.1763 141.991 33 142.23 33 142.5C33 142.77 33.1763 143.009 33.4346 143.088L40.6847 145.315L42.9119 152.565C42.9912 152.824 43.2298 153 43.5 153C43.7702 153 44.0088 152.824 44.0881 152.565L46.3153 145.315L53.5654 143.088C53.8237 143.009 54 142.77 54 142.5C54 142.23 53.8237 141.991 53.5654 141.912Z" fill="#666666"/>
</g>
<g clip-path="url(#clip26_4055_188)">
<path d="M86.5654 141.912L79.3153 139.685L77.0881 132.435C77.0088 132.176 76.7702 132 76.5 132C76.2298 132 75.9912 132.176 75.9119 132.435L73.6847 139.685L66.4346 141.912C66.1763 141.991 66 142.23 66 142.5C66 142.77 66.1763 143.009 66.4346 143.088L73.6847 145.315L75.9119 152.565C75.9912 152.824 76.2298 153 76.5 153C76.7702 153 77.0088 152.824 77.0881 152.565L79.3153 145.315L86.5654 143.088C86.8237 143.009 87 142.77 87 142.5C87 142.23 86.8237 141.991 86.5654 141.912Z" fill="#666666"/>
</g>
<g clip-path="url(#clip27_4055_188)">
<path d="M119.565 141.912L112.315 139.685L110.088 132.435C110.009 132.176 109.77 132 109.5 132C109.23 132 108.991 132.176 108.912 132.435L106.685 139.685L99.4346 141.912C99.1763 141.991 99 142.23 99 142.5C99 142.77 99.1763 143.009 99.4346 143.088L106.685 145.315L108.912 152.565C108.991 152.824 109.23 153 109.5 153C109.77 153 110.009 152.824 110.088 152.565L112.315 145.315L119.565 143.088C119.824 143.009 120 142.77 120 142.5C120 142.23 119.824 141.991 119.565 141.912Z" fill="#666666"/>
</g>
<g clip-path="url(#clip28_4055_188)">
<path d="M152.565 141.912L145.315 139.685L143.088 132.435C143.009 132.176 142.77 132 142.5 132C142.23 132 141.991 132.176 141.912 132.435L139.685 139.685L132.435 141.912C132.176 141.991 132 142.23 132 142.5C132 142.77 132.176 143.009 132.435 143.088L139.685 145.315L141.912 152.565C141.991 152.824 142.23 153 142.5 153C142.77 153 143.009 152.824 143.088 152.565L145.315 145.315L152.565 143.088C152.824 143.009 153 142.77 153 142.5C153 142.23 152.824 141.991 152.565 141.912Z" fill="#666666"/>
</g>
<g clip-path="url(#clip29_4055_188)">
<path d="M185.565 141.912L178.315 139.685L176.088 132.435C176.009 132.176 175.77 132 175.5 132C175.23 132 174.991 132.176 174.912 132.435L172.685 139.685L165.435 141.912C165.176 141.991 165 142.23 165 142.5C165 142.77 165.176 143.009 165.435 143.088L172.685 145.315L174.912 152.565C174.991 152.824 175.23 153 175.5 153C175.77 153 176.009 152.824 176.088 152.565L178.315 145.315L185.565 143.088C185.824 143.009 186 142.77 186 142.5C186 142.23 185.824 141.991 185.565 141.912Z" fill="#666666"/>
</g>
<g clip-path="url(#clip30_4055_188)">
<path d="M20.5654 174.912L13.3153 172.685L11.0881 165.435C11.0088 165.176 10.7702 165 10.5 165C10.2298 165 9.99124 165.176 9.91188 165.435L7.68473 172.685L0.434561 174.912C0.176285 174.991 0 175.23 0 175.5C0 175.77 0.176285 176.009 0.434561 176.088L7.68473 178.315L9.91188 185.565C9.99124 185.824 10.2298 186 10.5 186C10.7702 186 11.0088 185.824 11.0881 185.565L13.3153 178.315L20.5654 176.088C20.8237 176.009 21 175.77 21 175.5C21 175.23 20.8237 174.991 20.5654 174.912Z" fill="#666666"/>
</g>
<g clip-path="url(#clip31_4055_188)">
<path d="M53.5654 174.912L46.3153 172.685L44.0881 165.435C44.0088 165.176 43.7702 165 43.5 165C43.2298 165 42.9912 165.176 42.9119 165.435L40.6847 172.685L33.4346 174.912C33.1763 174.991 33 175.23 33 175.5C33 175.77 33.1763 176.009 33.4346 176.088L40.6847 178.315L42.9119 185.565C42.9912 185.824 43.2298 186 43.5 186C43.7702 186 44.0088 185.824 44.0881 185.565L46.3153 178.315L53.5654 176.088C53.8237 176.009 54 175.77 54 175.5C54 175.23 53.8237 174.991 53.5654 174.912Z" fill="#666666"/>
</g>
<g clip-path="url(#clip32_4055_188)">
<path d="M86.5654 174.912L79.3153 172.685L77.0881 165.435C77.0088 165.176 76.7702 165 76.5 165C76.2298 165 75.9912 165.176 75.9119 165.435L73.6847 172.685L66.4346 174.912C66.1763 174.991 66 175.23 66 175.5C66 175.77 66.1763 176.009 66.4346 176.088L73.6847 178.315L75.9119 185.565C75.9912 185.824 76.2298 186 76.5 186C76.7702 186 77.0088 185.824 77.0881 185.565L79.3153 178.315L86.5654 176.088C86.8237 176.009 87 175.77 87 175.5C87 175.23 86.8237 174.991 86.5654 174.912Z" fill="#666666"/>
</g>
<g clip-path="url(#clip33_4055_188)">
<path d="M119.565 174.912L112.315 172.685L110.088 165.435C110.009 165.176 109.77 165 109.5 165C109.23 165 108.991 165.176 108.912 165.435L106.685 172.685L99.4346 174.912C99.1763 174.991 99 175.23 99 175.5C99 175.77 99.1763 176.009 99.4346 176.088L106.685 178.315L108.912 185.565C108.991 185.824 109.23 186 109.5 186C109.77 186 110.009 185.824 110.088 185.565L112.315 178.315L119.565 176.088C119.824 176.009 120 175.77 120 175.5C120 175.23 119.824 174.991 119.565 174.912Z" fill="#666666"/>
</g>
<g clip-path="url(#clip34_4055_188)">
<path d="M152.565 174.912L145.315 172.685L143.088 165.435C143.009 165.176 142.77 165 142.5 165C142.23 165 141.991 165.176 141.912 165.435L139.685 172.685L132.435 174.912C132.176 174.991 132 175.23 132 175.5C132 175.77 132.176 176.009 132.435 176.088L139.685 178.315L141.912 185.565C141.991 185.824 142.23 186 142.5 186C142.77 186 143.009 185.824 143.088 185.565L145.315 178.315L152.565 176.088C152.824 176.009 153 175.77 153 175.5C153 175.23 152.824 174.991 152.565 174.912Z" fill="#666666"/>
</g>
<g clip-path="url(#clip35_4055_188)">
<path d="M185.565 174.912L178.315 172.685L176.088 165.435C176.009 165.176 175.77 165 175.5 165C175.23 165 174.991 165.176 174.912 165.435L172.685 172.685L165.435 174.912C165.176 174.991 165 175.23 165 175.5C165 175.77 165.176 176.009 165.435 176.088L172.685 178.315L174.912 185.565C174.991 185.824 175.23 186 175.5 186C175.77 186 176.009 185.824 176.088 185.565L178.315 178.315L185.565 176.088C185.824 176.009 186 175.77 186 175.5C186 175.23 185.824 174.991 185.565 174.912Z" fill="#666666"/>
</g>
<defs>
<clipPath id="clip0_4055_188">
<rect width="21" height="21" fill="white"/>
</clipPath>
<clipPath id="clip1_4055_188">
<rect width="21" height="21" fill="white" transform="translate(33)"/>
</clipPath>
<clipPath id="clip2_4055_188">
<rect width="21" height="21" fill="white" transform="translate(66)"/>
</clipPath>
<clipPath id="clip3_4055_188">
<rect width="21" height="21" fill="white" transform="translate(99)"/>
</clipPath>
<clipPath id="clip4_4055_188">
<rect width="21" height="21" fill="white" transform="translate(132)"/>
</clipPath>
<clipPath id="clip5_4055_188">
<rect width="21" height="21" fill="white" transform="translate(165)"/>
</clipPath>
<clipPath id="clip6_4055_188">
<rect width="21" height="21" fill="white" transform="translate(0 33)"/>
</clipPath>
<clipPath id="clip7_4055_188">
<rect width="21" height="21" fill="white" transform="translate(33 33)"/>
</clipPath>
<clipPath id="clip8_4055_188">
<rect width="21" height="21" fill="white" transform="translate(66 33)"/>
</clipPath>
<clipPath id="clip9_4055_188">
<rect width="21" height="21" fill="white" transform="translate(99 33)"/>
</clipPath>
<clipPath id="clip10_4055_188">
<rect width="21" height="21" fill="white" transform="translate(132 33)"/>
</clipPath>
<clipPath id="clip11_4055_188">
<rect width="21" height="21" fill="white" transform="translate(165 33)"/>
</clipPath>
<clipPath id="clip12_4055_188">
<rect width="21" height="21" fill="white" transform="translate(0 66)"/>
</clipPath>
<clipPath id="clip13_4055_188">
<rect width="21" height="21" fill="white" transform="translate(33 66)"/>
</clipPath>
<clipPath id="clip14_4055_188">
<rect width="21" height="21" fill="white" transform="translate(66 66)"/>
</clipPath>
<clipPath id="clip15_4055_188">
<rect width="21" height="21" fill="white" transform="translate(99 66)"/>
</clipPath>
<clipPath id="clip16_4055_188">
<rect width="21" height="21" fill="white" transform="translate(132 66)"/>
</clipPath>
<clipPath id="clip17_4055_188">
<rect width="21" height="21" fill="white" transform="translate(165 66)"/>
</clipPath>
<clipPath id="clip18_4055_188">
<rect width="21" height="21" fill="white" transform="translate(0 99)"/>
</clipPath>
<clipPath id="clip19_4055_188">
<rect width="21" height="21" fill="white" transform="translate(33 99)"/>
</clipPath>
<clipPath id="clip20_4055_188">
<rect width="21" height="21" fill="white" transform="translate(66 99)"/>
</clipPath>
<clipPath id="clip21_4055_188">
<rect width="21" height="21" fill="white" transform="translate(99 99)"/>
</clipPath>
<clipPath id="clip22_4055_188">
<rect width="21" height="21" fill="white" transform="translate(132 99)"/>
</clipPath>
<clipPath id="clip23_4055_188">
<rect width="21" height="21" fill="white" transform="translate(165 99)"/>
</clipPath>
<clipPath id="clip24_4055_188">
<rect width="21" height="21" fill="white" transform="translate(0 132)"/>
</clipPath>
<clipPath id="clip25_4055_188">
<rect width="21" height="21" fill="white" transform="translate(33 132)"/>
</clipPath>
<clipPath id="clip26_4055_188">
<rect width="21" height="21" fill="white" transform="translate(66 132)"/>
</clipPath>
<clipPath id="clip27_4055_188">
<rect width="21" height="21" fill="white" transform="translate(99 132)"/>
</clipPath>
<clipPath id="clip28_4055_188">
<rect width="21" height="21" fill="white" transform="translate(132 132)"/>
</clipPath>
<clipPath id="clip29_4055_188">
<rect width="21" height="21" fill="white" transform="translate(165 132)"/>
</clipPath>
<clipPath id="clip30_4055_188">
<rect width="21" height="21" fill="white" transform="translate(0 165)"/>
</clipPath>
<clipPath id="clip31_4055_188">
<rect width="21" height="21" fill="white" transform="translate(33 165)"/>
</clipPath>
<clipPath id="clip32_4055_188">
<rect width="21" height="21" fill="white" transform="translate(66 165)"/>
</clipPath>
<clipPath id="clip33_4055_188">
<rect width="21" height="21" fill="white" transform="translate(99 165)"/>
</clipPath>
<clipPath id="clip34_4055_188">
<rect width="21" height="21" fill="white" transform="translate(132 165)"/>
</clipPath>
<clipPath id="clip35_4055_188">
<rect width="21" height="21" fill="white" transform="translate(165 165)"/>
</clipPath>
</defs>
</svg>
