<svg width="25" height="26" viewBox="0 0 25 26" fill="none" xmlns="http://www.w3.org/2000/svg">
<path d="M22.9167 18.1248V21.2498C22.9179 21.5399 22.8585 21.827 22.7423 22.0928C22.626 22.3587 22.4556 22.5973 22.2418 22.7934C22.028 22.9895 21.7757 23.1388 21.5009 23.2318C21.226 23.3247 20.9348 23.3592 20.6459 23.3331C17.4405 22.9848 14.3615 21.8895 11.6563 20.1352C9.13948 18.5359 7.00563 16.402 5.40632 13.8852C3.64588 11.1677 2.55033 8.07373 2.20841 4.85394C2.18238 4.56589 2.21661 4.27557 2.30893 4.00147C2.40125 3.72737 2.54963 3.47549 2.74462 3.26188C2.93962 3.04827 3.17695 2.8776 3.44152 2.76074C3.70609 2.64387 3.99209 2.58338 4.28132 2.58311H7.40632C7.91185 2.57813 8.40194 2.75715 8.78524 3.08679C9.16854 3.41643 9.4189 3.8742 9.48966 4.37478C9.62155 5.37484 9.86617 6.35678 10.2188 7.30186C10.359 7.6747 10.3893 8.07989 10.3062 8.46944C10.2231 8.85899 10.0301 9.21656 9.75007 9.49978L8.42716 10.8227C9.91003 13.4306 12.0693 15.5898 14.6772 17.0727L16.0001 15.7498C16.2833 15.4697 16.6409 15.2767 17.0304 15.1936C17.42 15.1105 17.8252 15.1409 18.198 15.281C19.1431 15.6337 20.125 15.8783 21.1251 16.0102C21.6311 16.0816 22.0932 16.3364 22.4235 16.7263C22.7539 17.1162 22.9294 17.6139 22.9167 18.1248Z" stroke="#64CCC5" stroke-width="1.3" stroke-linecap="round" stroke-linejoin="round"/>
</svg>
