<svg width="39" height="38" viewBox="0 0 39 38" fill="none" xmlns="http://www.w3.org/2000/svg">
<g clip-path="url(#clip0_4055_1703)">
<path d="M19.8662 6.03682C20.2638 6.03682 20.5882 5.72199 20.6045 5.3281C20.6052 5.31849 20.6052 5.30814 20.6052 5.2978C20.6052 4.88986 20.2741 4.55878 19.8662 4.55878C19.4582 4.55878 19.1272 4.88986 19.1272 5.2978C19.1272 5.30814 19.1272 5.31849 19.1279 5.3281C19.1442 5.72199 19.4686 6.03682 19.8662 6.03682Z" fill="white"/>
<path d="M22.0832 19.7087C24.5328 19.7087 26.5174 17.7245 26.5174 15.2746C26.5174 12.8296 24.5282 10.8405 22.0832 10.8405H15.4321C15.024 10.8405 14.693 11.1713 14.693 11.5795V18.2307H13.954C13.5459 18.2307 13.215 18.5615 13.215 18.9697C13.215 19.3778 13.5459 19.7087 13.954 19.7087H14.693V22.6648H13.954C13.5459 22.6648 13.215 22.9956 13.215 23.4038C13.215 23.812 13.5459 24.1428 13.954 24.1428H14.693V27.8379C14.693 28.2461 15.024 28.5769 15.4321 28.5769C15.8401 28.5769 16.1711 28.2461 16.1711 27.8379V24.1428H21.3442C21.7523 24.1428 22.0832 23.812 22.0832 23.4038C22.0832 22.9956 21.7523 22.6648 21.3442 22.6648H16.1711V19.7087H22.0832ZM16.1711 12.3185H22.0832C23.7132 12.3185 25.0393 13.6446 25.0393 15.2746C25.0393 16.9071 23.7162 18.2307 22.0832 18.2307H16.1711V12.3185Z" fill="white"/>
<path d="M19.8662 37.8886C30.0537 37.8886 38.7851 29.1611 38.7851 18.9697C38.7851 8.79775 30.0731 0.0507812 19.8662 0.0507812C9.67864 0.0507812 0.947266 8.77831 0.947266 18.9697C0.947266 29.1563 9.6748 37.8886 19.8662 37.8886ZM19.8662 1.52882C29.1571 1.52882 37.3071 9.67874 37.3071 18.9697C37.3071 28.2607 29.1571 36.4106 19.8662 36.4106C10.5752 36.4106 2.42531 28.2607 2.42531 18.9697C2.42531 9.67874 10.5752 1.52882 19.8662 1.52882Z" fill="white"/>
<path d="M19.8662 33.4545C27.5668 33.4545 34.351 26.7221 34.351 18.9697C34.351 12.3898 29.4111 6.37903 22.9803 4.85206C22.5832 4.75769 22.1848 5.00319 22.0906 5.40034C21.9963 5.79749 22.2418 6.19582 22.6388 6.29012C28.4732 7.67542 32.8729 13.1265 32.8729 18.9697C32.8729 25.8985 26.795 31.9765 19.8662 31.9765C12.9373 31.9765 6.85942 25.8985 6.85942 18.9697C6.85942 13.1265 11.2591 7.67542 17.0935 6.29012C17.4906 6.19582 17.736 5.79749 17.6418 5.40034C17.5475 5.00312 17.149 4.75762 16.752 4.85206C10.3262 6.37785 5.38138 12.3845 5.38138 18.9697C5.38138 26.6703 12.1138 33.4545 19.8662 33.4545Z" fill="white"/>
</g>
<defs>
<clipPath id="clip0_4055_1703">
<rect width="37.8378" height="37.8378" fill="white" transform="translate(0.947266 0.0507812)"/>
</clipPath>
</defs>
</svg>
