<svg width="50" height="50" viewBox="0 0 50 50" fill="none" xmlns="http://www.w3.org/2000/svg">
<circle cx="25" cy="25" r="24.5" fill="#FBFBFB" stroke="black"/>
<path d="M25 39C32.732 39 39 32.732 39 25C39 17.268 32.732 11 25 11C17.268 11 11 17.268 11 25C11 32.732 17.268 39 25 39Z" fill="black"/>
<path d="M17.4062 24.6967L30.9045 19.4922C31.531 19.2658 32.0782 19.645 31.8752 20.5923L31.8763 20.5912L29.578 31.419C29.4077 32.1867 28.9515 32.3733 28.3133 32.0117L24.8133 29.4322L23.1252 31.0585C22.9385 31.2452 22.781 31.4027 22.4193 31.4027L22.6678 27.8408L29.1545 21.9807C29.4368 21.7322 29.0915 21.5922 28.7193 21.8395L20.7032 26.8865L17.2475 25.8085C16.4973 25.5705 16.481 25.0583 17.4062 24.6967Z" fill="white"/>
</svg>
