<svg width="40" height="40" viewBox="0 0 40 40" fill="none" xmlns="http://www.w3.org/2000/svg">
<path d="M31.3203 6.5625H24.2344V2.8125H3.05469C1.83594 2.8125 0.859375 3.78906 0.859375 5.01562V28.6328C0.859375 29.8516 1.83594 30.8281 3.05469 30.8281H5.60156C5.53125 31.1719 5.5 31.5234 5.5 31.8906C5.5 34.8203 7.85938 37.1875 10.7969 37.1875C13.7266 37.1875 16.1719 34.7422 16.0938 31.8906C16.0938 31.5547 16.0625 31.2266 16 30.9141H25.7109C25.6484 31.2344 25.6172 31.5547 25.6172 31.8906C25.6172 34.8203 27.9766 37.1875 30.9141 37.1875C33.8516 37.1875 36.2109 34.7422 36.2109 31.8906C36.2109 31.5547 36.1797 31.2266 36.1172 30.9141H36.9375C38.1562 30.9141 39.1328 29.8516 39.1328 28.6328V17.8828L31.3203 6.5625ZM30.5078 8.10938L36.8594 17.3125H24.3203V8.10938H30.5078ZM10.7969 35.5547C8.75781 35.5547 7.04688 33.8438 7.04688 31.8047C7.04688 29.7656 8.75781 28.0547 10.7969 28.0547C12.9141 28.0547 14.5469 29.7656 14.5469 31.8047C14.5391 33.8438 12.8359 35.5547 10.7969 35.5547ZM15.4062 29.2891C14.5 27.6797 12.7812 26.6016 10.7969 26.6016C8.84375 26.6016 7.14844 27.6484 6.23438 29.2109H3.05469C2.72656 29.2109 2.48438 28.9688 2.48438 28.6406V5.01562C2.48438 4.6875 2.72656 4.44531 3.05469 4.44531H22.6875V29.2891H15.4062ZM30.9141 35.5547C28.875 35.5547 27.1641 33.8438 27.1641 31.8047C27.1641 29.7656 28.875 28.0547 30.9141 28.0547C32.9531 28.0547 34.6641 29.7656 34.6641 31.8047C34.6641 33.8438 32.9531 35.5547 30.9141 35.5547ZM36.9453 29.2891H35.5312C34.625 27.6797 32.9062 26.6016 30.9219 26.6016C28.9375 26.6016 27.2188 27.6797 26.3125 29.2891H24.3281V18.9375H37.6016V28.6328C37.5938 28.9609 37.2656 29.2891 36.9453 29.2891Z" fill="white"/>
<path d="M5.01562 15.7656H20.0781V9.32812H5.01562V15.7656ZM6.64063 10.9609H18.5312V14.2188H6.64063V10.9609Z" fill="white"/>
</svg>
