<svg width="46" height="47" viewBox="0 0 46 47" fill="none" xmlns="http://www.w3.org/2000/svg">
<g clip-path="url(#clip0_4055_657)">
<path d="M0.71875 46.2515H45.2812C45.6787 46.2515 46 45.9302 46 45.5327V42.6577C46 42.2603 45.6787 41.939 45.2812 41.939H43.125V36.189H45.2812C45.6787 36.189 46 35.8677 46 35.4702V32.5952C46 32.1978 45.6787 31.8765 45.2812 31.8765H42.6384L27.7854 21.2943C27.9457 20.7646 28.032 20.2083 28.0363 19.6398C28.0471 18.2231 27.549 16.8934 26.6383 15.8462L27.1695 13.1919H27.3039C27.5303 13.1919 27.743 13.0855 27.8796 12.9044L30.0351 10.0265C30.1278 9.90215 30.1782 9.75049 30.1782 9.59524V2.41061C30.1782 2.01315 29.8569 1.69186 29.4594 1.69186H16.5197C16.1223 1.69186 15.801 2.01315 15.801 2.41061V9.59524C15.801 9.75049 15.8513 9.90215 15.944 10.0265L18.0996 12.9044C18.2354 13.0855 18.4482 13.1919 18.6753 13.1919H18.699V14.7401C18.6918 14.9327 18.7579 15.1267 18.9046 15.2734L21.7487 18.1189C22.0203 18.3906 22.1698 18.7521 22.1698 19.1359C22.1698 19.5197 22.0203 19.8798 21.7487 20.1515C21.6545 20.2457 21.5481 20.3176 21.4374 20.3801C21.4382 20.2349 21.4073 20.0883 21.3167 19.9603C21.0874 19.6376 20.6389 19.5621 20.314 19.7921L19.7599 20.1875C19.7455 20.1745 19.729 20.1652 19.7153 20.1515L17.8228 18.2605C17.6331 18.0707 17.3535 18.0017 17.0991 18.083C16.8439 18.1635 16.6542 18.3791 16.6067 18.6429C16.3954 19.8324 16.5693 21.0392 17.0703 22.1022L3.35297 31.8765H0.71875C0.321281 31.8765 0 32.1978 0 32.5952V35.4702C0 35.8677 0.321281 36.189 0.71875 36.189H2.87572V41.939H0.71875C0.321281 41.939 0 42.2603 0 42.6577V45.5327C0 45.9302 0.321281 46.2515 0.71875 46.2515ZM17.2385 9.3559V3.12936H28.7399V9.3559L26.9438 11.7544H19.0347L17.2385 9.3559ZM22.765 21.1693C23.3091 20.6266 23.6081 19.9043 23.6081 19.1366C23.6081 18.3683 23.3091 17.6467 22.7657 17.1033L20.1372 14.4734V13.1926H25.7032L25.1577 15.9195C25.1527 15.9425 25.1606 15.9648 25.1577 15.9885C25.1527 16.0381 25.1527 16.0856 25.1584 16.1351C25.1627 16.1804 25.1706 16.2228 25.1836 16.266C25.1965 16.3098 25.2138 16.35 25.2353 16.391C25.2583 16.4349 25.2842 16.4737 25.3158 16.5118C25.3309 16.5297 25.3367 16.5527 25.3539 16.5693C26.1654 17.38 26.6067 18.4675 26.5981 19.6311C26.5894 20.7941 26.1338 21.8859 25.3158 22.7038C24.5007 23.5189 23.4176 23.9674 22.2662 23.9674C21.1147 23.9674 20.0316 23.5189 19.2165 22.7038C19.1461 22.6334 19.0878 22.5536 19.0224 22.4788L19.8792 21.8679C20.8675 22.1734 21.9851 21.9491 22.765 21.1693ZM18.0428 20.5116L18.5689 21.037L18.2706 21.2491C18.175 21.0097 18.0938 20.7646 18.0428 20.5116ZM17.8451 23.3176C17.9587 23.4542 18.073 23.5922 18.2002 23.7194C19.3214 24.8406 20.7934 25.4013 22.2662 25.4013C23.7389 25.4013 25.2116 24.8406 26.3321 23.7194C26.6635 23.3881 26.9438 23.0201 27.1824 22.6298L40.1616 31.8765H5.82978L17.8451 23.3176ZM1.4375 33.314H44.5625V34.7515H1.4375V33.314ZM4.31322 36.189H41.6875V41.939H4.31322V36.189ZM1.4375 43.3765H44.5625V44.814H1.4375V43.3765Z" fill="white"/>
<path d="M27.301 38.3452H18.676C18.2785 38.3452 17.9572 38.6665 17.9572 39.064C17.9572 39.4615 18.2785 39.7827 18.676 39.7827H27.301C27.6985 39.7827 28.0197 39.4615 28.0197 39.064C28.0197 38.6665 27.6985 38.3452 27.301 38.3452Z" fill="white"/>
</g>
<defs>
<clipPath id="clip0_4055_657">
<rect width="46" height="46" fill="white" transform="translate(0 0.97168)"/>
</clipPath>
</defs>
</svg>
