<svg width="46" height="47" viewBox="0 0 46 47" fill="none" xmlns="http://www.w3.org/2000/svg">
<g clip-path="url(#clip0_4055_619)">
<path d="M33.2446 25.7129C37.9525 29.2149 44.8346 34.4059 44.8365 34.4059L45.9999 32.8636C45.9999 32.8636 39.1121 27.6668 34.4003 24.1629C30.6781 21.3954 30.7979 17.619 30.8965 14.5848C30.91 14.1442 30.9236 13.7267 30.9236 13.3422C30.9236 9.55807 27.6169 1.74642 17.3952 1.74642C7.99296 1.74651 6.20911 3.50327 5.88054 4.2589C5.66991 4.73622 5.88054 5.29481 6.35207 5.51894C6.41004 5.54602 12.1692 8.26903 15.9669 10.3273C16.908 10.8375 17.4878 11.5023 17.7391 12.3604C18.2706 14.1713 17.2212 16.4866 16.5466 17.7061C14.6604 21.1249 12.5925 22.2226 10.0356 21.1481C6.07567 19.4841 1.41997 17.3196 1.37359 17.2983C1.0663 17.1573 0.706835 17.1863 0.422739 17.3756C0.140546 17.565 -0.0178993 17.8897 0.00139676 18.2298C0.0187904 18.5332 0.492315 25.7033 6.13945 30.5058C8.75239 32.7283 12.2929 33.6348 18.3614 33.6348C23.0094 33.6348 27.3597 37.2371 27.4447 37.3067L39.0405 46.0035C39.2144 46.133 39.4193 46.1968 39.6203 46.1968C39.9121 46.1968 40.202 46.0634 40.3953 45.8102C40.7142 45.3831 40.6272 44.7782 40.2001 44.4574L28.6469 35.7955C28.4498 35.6273 23.7245 31.7022 18.3615 31.7022C12.7974 31.7022 9.62017 30.9291 7.38998 29.0332C3.94024 26.0995 2.65311 22.0507 2.18738 19.7991C3.91515 20.5876 6.74261 21.8593 9.28978 22.93C12.8362 24.4239 15.8472 22.9783 18.2398 18.6414C19.2389 16.8306 20.2845 14.1771 19.5946 11.8173C19.1964 10.4587 18.2862 9.38612 16.8889 8.6285C14.3107 7.23121 10.8494 5.53633 8.83175 4.56229C10.117 4.15064 12.6294 3.67911 17.3952 3.67911C27.0216 3.67911 28.991 11.3014 28.991 13.3423C28.991 13.7075 28.9775 14.1037 28.9639 14.5211C28.8634 17.6365 28.7127 22.3425 33.2446 25.7129Z" fill="white"/>
<path d="M16.9275 15.1434L16.5526 10.2983C16.4443 8.92809 15.6094 7.70854 14.3707 7.11526L9.98748 5.01842C8.74864 4.42513 7.27018 4.5372 6.14158 5.31601L2.13326 8.06231C0.998776 8.83732 0.361009 10.1708 0.467364 11.5429L0.842324 16.3881C0.950581 17.7583 1.78548 18.9778 3.02423 19.5711L7.40742 21.668C7.93313 21.9212 8.50322 22.0449 9.07141 22.0449C9.83864 22.0449 10.604 21.8169 11.2533 21.3704L15.2616 18.6241C16.396 17.8472 17.0338 16.5137 16.9275 15.1434ZM14.1697 17.0277L10.1594 19.7759C9.59703 20.1663 8.86459 20.2243 8.24033 19.9248L3.85713 17.8278C3.24065 17.5321 2.82121 16.9234 2.76713 16.2392L2.39027 11.3941C2.33999 10.7099 2.65697 10.0432 3.22326 9.65663L7.23539 6.90844C7.80168 6.52188 8.53411 6.4639 9.15449 6.7596L13.5358 8.85652C14.1562 9.15222 14.5736 9.76099 14.6277 10.4451L15.0026 15.2903C15.0528 15.9745 14.7359 16.6413 14.1697 17.0277Z" fill="white"/>
<path d="M8.69835 9.47698C6.56663 9.47698 4.83307 11.2105 4.83307 13.3423C4.83307 15.474 6.56663 17.2075 8.69835 17.2075C10.8281 17.2075 12.5636 15.474 12.5636 13.3423C12.5636 11.2105 10.8301 9.47698 8.69835 9.47698ZM8.69835 15.2749C7.63154 15.2749 6.76576 14.4071 6.76576 13.3423C6.76576 12.2774 7.63154 11.4097 8.69835 11.4097C9.76326 11.4097 10.6309 12.2774 10.6309 13.3423C10.631 14.4071 9.76516 15.2749 8.69835 15.2749Z" fill="white"/>
</g>
<defs>
<clipPath id="clip0_4055_619">
<rect width="46" height="46" fill="white" transform="translate(0 0.97168)"/>
</clipPath>
</defs>
</svg>
