<svg width="46" height="46" viewBox="0 0 46 46" fill="none" xmlns="http://www.w3.org/2000/svg">
<path d="M45.207 16.5617C40.0524 16.2857 36.5631 14.7221 34.4219 11.4109C34.353 11.2908 34.2582 11.1937 34.1469 11.1291C34.0356 11.0646 33.9118 11.0349 33.7875 11.043H21.4165V8.28373C21.4292 8.15938 21.4175 8.0333 21.3821 7.91497C21.3468 7.79665 21.2888 7.68917 21.2124 7.60062C21.1361 7.51207 21.0434 7.44477 20.9414 7.40377C20.8394 7.36278 20.7307 7.34917 20.6234 7.36396H15.0723V0.925565C15.0851 0.801217 15.0733 0.675134 15.038 0.556809C15.0027 0.438485 14.9446 0.331002 14.8683 0.242455C14.7919 0.153908 14.6993 0.0866044 14.5972 0.0456113C14.4952 0.00461811 14.3865 -0.00899607 14.2793 0.00579427H0.798013C0.690802 -0.00899607 0.582094 0.00461811 0.480076 0.0456113C0.378057 0.0866044 0.285387 0.153908 0.209042 0.242455C0.132698 0.331002 0.0746693 0.438485 0.0393254 0.556809C0.00398153 0.675134 -0.0077563 0.801217 0.00499579 0.925565V37.7164C-0.0077563 37.8407 0.00398153 37.9668 0.0393254 38.0851C0.0746693 38.2035 0.132698 38.3109 0.209042 38.3995C0.285387 38.488 0.378057 38.5553 0.480076 38.5963C0.582094 38.6373 0.690802 38.6509 0.798013 38.6361H14.2793C14.3865 38.6509 14.4952 38.6373 14.5972 38.5963C14.6993 38.5553 14.7919 38.488 14.8683 38.3995C14.9446 38.3109 15.0027 38.2035 15.038 38.0851C15.0733 37.9668 15.0851 37.8407 15.0723 37.7164V31.278H20.6234C20.7307 31.2928 20.8394 31.2792 20.9414 31.2382C21.0434 31.1972 21.1361 31.1299 21.2124 31.0413C21.2888 30.9528 21.3468 30.8453 21.3821 30.727C21.4175 30.6086 21.4292 30.4826 21.4165 30.3582V27.5989H33.7875C33.9118 27.607 34.0356 27.5774 34.1469 27.5128C34.2582 27.4483 34.353 27.3511 34.4219 27.231C36.5631 23.9198 40.0524 22.3562 45.207 22.0803C45.4173 22.0803 45.619 21.9834 45.7677 21.8109C45.9165 21.6384 46 21.4045 46 21.1605V17.4814C46 17.2375 45.9165 17.0035 45.7677 16.8311C45.619 16.6586 45.4173 16.5617 45.207 16.5617ZM13.4863 36.7966H1.59103V1.84534H13.4863V36.7966ZM19.8304 29.4384H15.0723V9.2035H19.8304V29.4384ZM44.414 20.3327C39.3387 20.7006 35.7701 22.4482 33.391 25.7594H21.4165V12.8826H33.391C35.7701 16.1938 39.3387 17.9413 44.414 18.3092V20.3327Z" fill="black"/>
<path d="M38.8627 45.9943C38.9699 46.009 39.0786 45.9954 39.1806 45.9544C39.2826 45.9134 39.3753 45.8461 39.4516 45.7576C39.528 45.669 39.586 45.5616 39.6213 45.4432C39.6567 45.3249 39.6684 45.1988 39.6557 45.0745V27.5988C39.6684 27.4745 39.6567 27.3484 39.6213 27.2301C39.586 27.1118 39.528 27.0043 39.4516 26.9157C39.3753 26.8272 39.2826 26.7599 39.1806 26.7189C39.0786 26.6779 38.9699 26.6643 38.8627 26.6791C37.8236 26.7246 36.8377 27.2237 36.1024 28.0765C35.3672 28.9293 34.9368 30.0728 34.8976 31.2779V45.0745C34.8848 45.1988 34.8966 45.3249 34.9319 45.4432C34.9672 45.5616 35.0253 45.669 35.1016 45.7576C35.178 45.8461 35.2706 45.9134 35.3727 45.9544C35.4747 45.9954 35.5834 46.009 35.6906 45.9943H38.8627ZM36.4836 31.2779C36.5266 30.7238 36.6962 30.1931 36.975 29.7404C37.2538 29.2877 37.6317 28.9294 38.0696 28.7026V44.1547H36.4836V31.2779Z" fill="black"/>
<path d="M29.3462 28.5184H32.5183V30.3579H29.3462V28.5184Z" fill="black"/>
<path d="M30.1929 33.4364L32.6845 30.6032L33.7948 31.9168L31.3032 34.7499L30.1929 33.4364Z" fill="black"/>
<path d="M40.3643 24.6649L43.6106 23.4507L44.0975 25.202L40.8512 26.4162L40.3643 24.6649Z" fill="black"/>
<path d="M40.5183 29.0476L40.7578 27.2301L44.072 27.8176L43.8325 29.6351L40.5183 29.0476Z" fill="black"/>
</svg>
