<svg width="46" height="46" viewBox="0 0 46 46" fill="none" xmlns="http://www.w3.org/2000/svg">
<g clip-path="url(#clip0_4055_580)">
<path d="M45.3261 10.7812H21.7422C21.37 10.7812 21.0684 11.0829 21.0684 11.455V45.326C21.0684 45.6981 21.37 45.9998 21.7422 45.9998H45.3261C45.6983 45.9998 45.9999 45.6981 45.9999 45.326V11.455C45.9999 11.0829 45.6983 10.7812 45.3261 10.7812ZM41.9569 44.6521H25.1113V31.5126C25.1113 26.8682 28.8898 23.0897 33.5341 23.0897C38.1785 23.0897 41.9569 26.8682 41.9569 31.5126V44.6521ZM44.6523 44.6521H43.3046V31.5126C43.3046 26.1251 38.9216 21.7421 33.5341 21.7421C28.1467 21.7421 23.7637 26.1251 23.7637 31.5126V44.6521H22.416V14.8241H44.6523V44.6521ZM44.6523 13.4765H22.416V12.1288H44.6523V13.4765Z" fill="white"/>
<path d="M19.26 44.6868L17.0254 43.9419V35.2186H17.6992C18.0715 35.2186 18.3731 34.9169 18.3731 34.5448V27.8515C18.7452 27.8515 19.0468 27.5498 19.0468 27.1776V17.2978C19.0468 15.9355 17.9384 14.8271 16.5761 14.8271H10.7363C9.37398 14.8271 8.26559 15.9355 8.26559 17.2978V27.1776C8.26559 27.5498 8.56719 27.8515 8.93941 27.8515L8.9395 34.5448C8.9395 34.9169 9.24111 35.2186 9.61333 35.2186H10.2872V43.9419L8.05257 44.6868C7.69957 44.8045 7.50875 45.186 7.62644 45.5391C7.7206 45.8215 7.98348 46 8.26559 46C8.3362 46 8.40808 45.9888 8.47878 45.9652L11.1741 45.0668C11.4492 44.9751 11.6348 44.7176 11.6348 44.4276V35.2186H12.3086C12.6809 35.2186 12.9825 34.9169 12.9825 34.5448V30.9478C13.4272 31.0119 13.8854 31.0119 14.3301 30.9478V34.5448C14.3301 34.9169 14.6317 35.2186 15.0039 35.2186H15.6778V44.4276C15.6778 44.7176 15.8633 44.9751 16.1385 45.0668L18.8338 45.9652C18.9045 45.9888 18.9764 46 19.047 46C19.3291 46 19.592 45.8214 19.6861 45.5391C19.8038 45.186 19.613 44.8045 19.26 44.6868ZM9.61324 26.5038V17.2978C9.61324 16.6786 10.117 16.1748 10.7363 16.1748H16.5761C17.1954 16.1748 17.6991 16.6786 17.6991 17.2978V26.5038H9.61324ZM17.0254 33.871H15.6778V30.0912C15.6778 29.8724 15.5716 29.6673 15.393 29.541C15.2144 29.4148 14.9857 29.3829 14.7793 29.4559C14.0573 29.7112 13.2558 29.7113 12.5332 29.4559C12.327 29.3829 12.0981 29.4148 11.9196 29.5411C11.741 29.6674 11.6348 29.8725 11.6348 30.0913V33.871H10.2872V27.8515H17.0254V33.871Z" fill="white"/>
<path d="M3.36923 17.9687C3.74137 17.9687 4.04306 17.667 4.04306 17.2949C4.04306 16.9227 3.74137 16.621 3.36923 16.621C2.99709 16.621 2.6954 16.9227 2.6954 17.2949C2.6954 17.667 2.99709 17.9687 3.36923 17.9687Z" fill="white"/>
<path d="M3.36922 13.9257C1.51144 13.9257 9.15527e-05 15.4371 9.15527e-05 17.2949V24.4794C9.15527e-05 26.3372 1.51144 27.8485 3.36922 27.8485C5.227 27.8485 6.73835 26.3372 6.73835 24.4794V17.2949C6.73835 15.4371 5.227 13.9257 3.36922 13.9257ZM5.3907 24.4795C5.3907 25.5941 4.48382 26.5009 3.36922 26.5009C2.25462 26.5009 1.34774 25.5941 1.34774 24.4794V19.9884C1.91124 20.4123 2.6113 20.664 3.36922 20.664C4.12714 20.664 4.8272 20.4123 5.3907 19.9884V24.4795ZM3.36922 19.3163C2.25462 19.3163 1.34774 18.4096 1.34774 17.2949C1.34774 16.1802 2.25462 15.2734 3.36922 15.2734C4.48382 15.2734 5.3907 16.1802 5.3907 17.2949C5.3907 18.4096 4.48382 19.3163 3.36922 19.3163Z" fill="white"/>
<path d="M35.9175 32.5179L34.01 30.6147C33.747 30.3521 33.3211 30.3523 33.0582 30.6147L31.1508 32.5179C30.5151 33.1521 30.165 33.995 30.165 34.8915C30.1651 36.7492 31.6764 38.2606 33.5341 38.2606C35.3919 38.2606 36.9033 36.7492 36.9033 34.8914C36.9033 33.9949 36.5531 33.1519 35.9175 32.5179ZM33.5341 36.9129C32.4195 36.9129 31.5127 36.0061 31.5127 34.8914C31.5127 34.3556 31.7222 33.8514 32.1025 33.4719L33.5341 32.0435L34.9658 33.472C35.3461 33.8514 35.5556 34.3555 35.5556 34.8914C35.5556 36.0061 34.6487 36.9129 33.5341 36.9129Z" fill="white"/>
<path d="M38.5878 39.2616H37.3498C37.5133 39.129 37.6713 38.9879 37.8225 38.8372C39.5806 37.0834 40.0884 34.474 39.1164 32.1897L37.2408 27.782C37.0954 27.44 36.7003 27.2806 36.358 27.4253L35.3794 27.8397L34.0101 26.4736C33.747 26.2112 33.3213 26.2112 33.0583 26.4736L31.6889 27.8397L30.7103 27.4253C30.3679 27.2805 29.973 27.44 29.8275 27.782L27.9519 32.1897C26.9799 34.4741 27.4878 37.0834 29.2458 38.8372C29.3969 38.9879 29.5549 39.129 29.7184 39.2616H28.4804C27.3658 39.2616 26.4589 40.1684 26.4589 41.2831C26.4589 42.3978 27.3658 43.3046 28.4804 43.3046H38.5878C39.7023 43.3046 40.6092 42.3978 40.6092 41.2831C40.6092 40.1684 39.7023 39.2616 38.5878 39.2616ZM28.4805 41.9569C28.1089 41.9569 27.8066 41.6547 27.8066 41.2831C27.8066 40.9115 28.1089 40.6093 28.4805 40.6093C28.8521 40.6093 29.1543 40.9115 29.1543 41.2831C29.1543 41.6547 28.8521 41.9569 28.4805 41.9569ZM29.192 32.7174L30.8042 28.9286L31.581 29.2575C31.8335 29.3644 32.1255 29.3077 32.3196 29.114L33.5342 27.9025L34.7488 29.114C34.9429 29.3077 35.2348 29.3644 35.4875 29.2575L36.2643 28.9286L37.8765 32.7174C38.6319 34.4924 38.2372 36.5201 36.8709 37.8831C35.9796 38.7721 34.7947 39.2616 33.5342 39.2616C32.2737 39.2616 31.0888 38.7721 30.1976 37.8831C28.8314 36.5202 28.4366 34.4925 29.192 32.7174ZM38.5878 41.9569H30.386C30.4609 41.7461 30.5019 41.5193 30.5019 41.2831C30.5019 41.0469 30.4608 40.8201 30.386 40.6093H38.5878C38.9594 40.6093 39.2617 40.9115 39.2617 41.2831C39.2617 41.6547 38.9594 41.9569 38.5878 41.9569Z" fill="white"/>
<path d="M40.3894 3.17724C40.1262 2.91409 39.6996 2.91409 39.4365 3.17724L37.7867 4.82705L36.137 3.17724C36.0106 3.05083 35.8392 2.97986 35.6605 2.97986C35.4817 2.97986 35.3104 3.05083 35.1839 3.17724L33.5341 4.82714L31.8843 3.17724C31.7579 3.05083 31.5866 2.97986 31.4078 2.97986C31.229 2.97986 31.0578 3.05083 30.9313 3.17724L29.2816 4.82705L27.6318 3.17724C27.3685 2.91409 26.942 2.91409 26.6788 3.17724C26.4157 3.4404 26.4157 3.86707 26.6788 4.13013L28.805 6.25646C28.9315 6.38287 29.1028 6.45385 29.2816 6.45385C29.4604 6.45385 29.6316 6.38287 29.7581 6.25646L31.4078 4.60666L33.0576 6.25646C33.3208 6.51961 33.7474 6.51961 34.0106 6.25646L35.6604 4.60666L37.3101 6.25646C37.4365 6.38287 37.6078 6.45385 37.7866 6.45385C37.9654 6.45385 38.1366 6.38287 38.2631 6.25646L40.3894 4.13013C40.6526 3.86698 40.6526 3.44031 40.3894 3.17724Z" fill="white"/>
<path d="M45.3261 0H21.7422C21.37 0 21.0684 0.301695 21.0684 0.673828V8.75977C21.0684 9.1319 21.37 9.43359 21.7422 9.43359H45.3261C45.6983 9.43359 45.9999 9.1319 45.9999 8.75977V0.673828C45.9999 0.301695 45.6983 0 45.3261 0ZM44.6523 8.08594H22.416V1.34766H44.6523V8.08594Z" fill="white"/>
<path d="M13.6563 1.39148C11.0555 1.39148 8.93951 3.50739 8.93951 6.10828V8.80359C8.93951 11.4045 11.0555 13.5204 13.6563 13.5204C16.2571 13.5204 18.3731 11.4045 18.3731 8.80359V6.10828C18.3731 3.50739 16.2571 1.39148 13.6563 1.39148ZM13.6563 2.73914C15.2852 2.73914 16.6477 3.90126 16.9586 5.43993C16.107 4.60375 14.9411 4.08679 13.6563 4.08679C12.3715 4.08679 11.2055 4.60375 10.354 5.43993C10.6649 3.90126 12.0273 2.73914 13.6563 2.73914ZM15.7247 6.147C14.4813 6.99333 12.8312 6.99333 11.5879 6.147C12.1593 5.7011 12.877 5.43445 13.6563 5.43445C14.4356 5.43445 15.1533 5.7011 15.7247 6.147ZM13.6563 12.1727C11.7985 12.1727 10.2872 10.6614 10.2872 8.80359C10.2872 8.2135 10.4401 7.65871 10.7076 7.17589C11.5837 7.81126 12.6199 8.12958 13.6563 8.12958C14.6927 8.12958 15.7289 7.81135 16.605 7.17589C16.8725 7.65871 17.0254 8.2135 17.0254 8.80359C17.0254 10.6614 15.5141 12.1727 13.6563 12.1727Z" fill="white"/>
<path d="M38.9247 16.1718H28.1435C27.7713 16.1718 27.4697 16.4735 27.4697 16.8456V19.7206C27.4697 20.0928 27.7713 20.3945 28.1435 20.3945H38.9247C39.297 20.3945 39.5986 20.0928 39.5986 19.7206V16.8456C39.5986 16.4735 39.297 16.1718 38.9247 16.1718ZM38.2509 19.0468H28.8173V17.5195H38.2509V19.0468Z" fill="white"/>
</g>
<defs>
<clipPath id="clip0_4055_580">
<rect width="46" height="46" fill="white"/>
</clipPath>
</defs>
</svg>
