<svg width="46" height="46" viewBox="0 0 46 46" fill="none" xmlns="http://www.w3.org/2000/svg">
<path d="M27.5381 8.60831H36.9768C37.3489 8.60831 37.6506 8.30662 37.6506 7.93449V4.30426C37.6506 3.93213 37.3489 3.63043 36.9768 3.63043H27.5381C27.1659 3.63043 26.8642 3.93213 26.8642 4.30426V7.93449C26.8642 8.30662 27.1659 8.60831 27.5381 8.60831ZM36.3029 7.26066H35.2909V4.97809H36.3029V7.26066ZM33.9433 7.26066H32.9313V4.97809H33.9433V7.26066ZM31.5836 7.26066H30.5716V4.97809H31.5836V7.26066ZM28.2119 4.97809H29.2239V7.26066H28.2119V4.97809Z" fill="white"/>
<path d="M6.30064 12.2385H13.2504V14.2874C13.2504 14.6595 13.5521 14.9612 13.9242 14.9612H17.9697V17.096C17.9697 17.4681 18.2714 17.7698 18.6436 17.7698C19.0157 17.7698 19.3174 17.4681 19.3174 17.096V14.9612H26.6824V22.6742L22.9999 25.7521L19.3174 22.6742V20.2546C19.3174 19.8824 19.0157 19.5807 18.6436 19.5807C18.2714 19.5807 17.9697 19.8824 17.9697 20.2546V22.9892C17.9697 23.1889 18.0582 23.3782 18.2114 23.5062L22.5678 27.1473C22.6929 27.2519 22.8464 27.3041 22.9999 27.3041C23.1534 27.3041 23.3069 27.2519 23.432 27.1473L27.7884 23.5062C27.9416 23.3782 28.0301 23.1889 28.0301 22.9892V14.9612H32.0756C32.4477 14.9612 32.7494 14.6595 32.7494 14.2874V12.2385H39.6992C40.0713 12.2385 40.373 11.9368 40.373 11.5647V0.673828C40.373 0.301695 40.0713 0 39.6992 0H6.30064C5.92851 0 5.62682 0.301695 5.62682 0.673828V11.5647C5.62682 11.9368 5.92851 12.2385 6.30064 12.2385ZM31.4017 13.6135H14.5981V12.2385H31.4017V13.6135ZM6.97447 1.34766H39.0253V10.8909H6.97447V1.34766Z" fill="white"/>
<path d="M12.6536 3.63043H9.02341C8.65127 3.63043 8.34958 3.93213 8.34958 4.30426V7.93449C8.34958 8.30662 8.65127 8.60831 9.02341 8.60831H12.6536C13.0258 8.60831 13.3275 8.30662 13.3275 7.93449V4.30426C13.3275 3.93213 13.0258 3.63043 12.6536 3.63043ZM11.9798 7.26066H9.69724V4.97809H11.9798V7.26066Z" fill="white"/>
<path d="M15.0132 8.60831H18.6435C19.0156 8.60831 19.3173 8.30662 19.3173 7.93449V4.30426C19.3173 3.93213 19.0156 3.63043 18.6435 3.63043H15.0132C14.641 3.63043 14.3393 3.93213 14.3393 4.30426V7.93449C14.3393 8.30662 14.641 8.60831 15.0132 8.60831ZM15.687 4.97809H17.9696V7.26066H15.687V4.97809Z" fill="white"/>
<path d="M45.3261 26.6826H38.2798C37.9077 26.6826 37.606 26.9843 37.606 27.3564C37.606 27.7285 37.9077 28.0302 38.2798 28.0302H44.6523V31.5835H29.9883C29.8274 31.5835 29.6719 31.6411 29.5498 31.7457L23 37.3598L16.4502 31.7457C16.3281 31.6411 16.1726 31.5835 16.0117 31.5835H1.34763V28.0302H16.6748L22.5678 32.9558C22.8195 33.1662 23.1859 33.1649 23.436 32.9526L29.2373 28.0302H35.1321C35.5042 28.0302 35.8059 27.7285 35.8059 27.3564C35.8059 26.9843 35.5042 26.6826 35.1321 26.6826H28.9899C28.8303 26.6826 28.6758 26.7393 28.5539 26.8426L22.9967 31.5579L17.3515 26.8394C17.2303 26.738 17.0773 26.6825 16.9193 26.6825H0.673798C0.301665 26.6825 -3.05176e-05 26.9842 -3.05176e-05 27.3563V32.2572C-3.05176e-05 32.6293 0.301665 32.931 0.673798 32.931H10.1647V41.0221H8.33594V38.9732C8.33594 38.6011 8.03425 38.2994 7.66211 38.2994H4.9394C4.56727 38.2994 4.26557 38.6011 4.26557 38.9732V41.0221H3.94106C3.56892 41.0221 3.26723 41.3238 3.26723 41.6959V45.3262C3.26723 45.6984 3.56892 46.0001 3.94106 46.0001H28.6056C28.9777 46.0001 29.2794 45.6984 29.2794 45.3262C29.2794 44.9541 28.9777 44.6524 28.6056 44.6524H4.61488V42.3698H41.3851V44.6524H31.7581C31.386 44.6524 31.0843 44.9541 31.0843 45.3262C31.0843 45.6984 31.386 46.0001 31.7581 46.0001H42.0589C42.431 46.0001 42.7327 45.6984 42.7327 45.3262V41.6959C42.7327 41.3238 42.431 41.0221 42.0589 41.0221H41.7344V38.9732C41.7344 38.6011 41.4327 38.2994 41.0605 38.2994H38.3378C37.9657 38.2994 37.664 38.6011 37.664 38.9732V41.0221H35.8352V32.931H45.3261C45.6983 32.931 46 32.6293 46 32.2572V27.3563C46 26.9843 45.6983 26.6826 45.3261 26.6826ZM5.61323 39.6471H6.98829V41.0222H5.61323V39.6471ZM39.0117 39.6471H40.3867V41.0222H39.0117V39.6471ZM34.4876 41.0221H11.5124V32.931H15.7624L22.5614 38.7588C22.6876 38.8669 22.8438 38.921 23 38.921C23.1561 38.921 23.3124 38.8669 23.4385 38.7588L30.2375 32.931H34.4876V41.0221Z" fill="white"/>
</svg>
