<svg width="46" height="47" viewBox="0 0 46 47" fill="none" xmlns="http://www.w3.org/2000/svg">
<g clip-path="url(#clip0_4055_637)">
<path d="M43.1252 14.3881H16.2922C15.7629 14.3881 15.3334 14.8177 15.3334 15.3469V35.3428C12.3791 35.18 10.3955 34.8571 8.95314 34.332C6.93308 33.5978 5.97561 32.4607 5.78684 30.5024C6.88321 30.0967 7.66728 29.041 7.66728 27.8056V18.2219C8.19656 18.2219 8.62538 17.7923 8.62538 17.263V15.3469C8.62538 14.8176 8.19656 14.388 7.66728 14.388V13.4299C7.66728 12.9007 7.23774 12.4718 6.70847 12.4718H5.75028V8.12076L12.1243 2.65787C12.5258 2.31323 12.5721 1.70822 12.2281 1.30599C11.8835 0.904563 11.2785 0.858203 10.8763 1.20213L4.16821 6.95216C3.95627 7.13463 3.83336 7.39994 3.83336 7.68008V12.4719H2.87535C2.34608 12.4719 1.91725 12.9008 1.91725 13.43V27.8056C1.91725 29.0662 2.73358 30.1402 3.86508 30.5262C4.0869 33.3268 5.5103 35.1195 8.29754 36.133C10.0895 36.7844 12.4486 37.1115 15.3334 37.2657V45.0555C15.3334 45.5847 15.763 46.0129 16.2922 46.0129H17.2503C17.2503 46.5421 17.6791 46.9717 18.2084 46.9717C18.7376 46.9717 19.1672 46.5421 19.1672 46.0129H40.2503C40.2503 46.5421 40.6798 46.9717 41.2077 46.9717C41.7382 46.9717 42.1678 46.5421 42.1678 46.0129H43.1252C43.6545 46.0129 44.0826 45.5847 44.0826 45.0555V15.3469C44.0826 14.8177 43.6545 14.3881 43.1252 14.3881ZM4.79218 28.763C4.26371 28.763 3.83345 28.3335 3.83345 27.8056H5.75028C5.75028 28.3335 5.32073 28.763 4.79218 28.763ZM5.75028 25.888H3.83345V14.3881H5.75028V25.888ZM42.1678 44.0967H17.2503V37.3415C17.9191 37.3612 18.6127 37.3724 19.3293 37.3795C19.7224 38.4997 20.7893 39.3055 22.0422 39.3055C23.6271 39.3055 24.9179 38.0155 24.9179 36.4307C24.9179 34.8444 23.6271 33.5557 22.0422 33.5557C20.7963 33.5557 19.7329 34.3516 19.335 35.4634C18.598 35.455 17.9045 35.441 17.2503 35.4213V27.8056H42.1678V44.0967ZM21.5628 35.601C21.7046 35.5196 21.8674 35.4718 22.0422 35.4718C22.5707 35.4718 23.0003 35.9013 23.0003 36.4306C23.0003 36.9584 22.5707 37.3878 22.0422 37.3878C21.8674 37.3878 21.7046 37.3401 21.5628 37.2586C21.8492 37.0931 22.0422 36.7843 22.0422 36.4305C22.0422 36.0755 21.8491 35.7667 21.5628 35.601ZM42.1678 25.8881H17.2503V16.305H42.1678V25.8881Z" fill="white"/>
<path d="M28.7502 35.4719H39.2929C39.8208 35.4719 40.2503 35.0423 40.2503 34.5131C40.2503 33.9838 39.8208 33.5557 39.2929 33.5557H28.7502C28.221 33.5557 27.7929 33.9839 27.7929 34.5131C27.7929 35.0422 28.2211 35.4719 28.7502 35.4719Z" fill="white"/>
<path d="M28.7502 31.638H39.2929C39.8208 31.638 40.2503 31.2098 40.2503 30.6807C40.2503 30.1515 39.8208 29.7218 39.2929 29.7218H28.7502C28.221 29.7218 27.7929 30.1514 27.7929 30.6807C27.7929 31.2099 28.2211 31.638 28.7502 31.638Z" fill="white"/>
<path d="M22.0422 23.9718C23.6271 23.9718 24.9179 22.6817 24.9179 21.0968C24.9179 19.5112 23.6271 18.2218 22.0422 18.2218C20.4566 18.2218 19.1672 19.5112 19.1672 21.0968C19.1672 22.6817 20.4566 23.9718 22.0422 23.9718ZM22.0422 20.1381C22.5707 20.1381 23.0003 20.5683 23.0003 21.0969C23.0003 21.6247 22.5707 22.055 22.0422 22.055C21.5136 22.055 21.0834 21.6247 21.0834 21.0969C21.0834 20.5683 21.5136 20.1381 22.0422 20.1381Z" fill="white"/>
<path d="M29.7076 23.9718C31.2939 23.9718 32.5826 22.6817 32.5826 21.0968C32.5826 19.5112 31.2939 18.2218 29.7076 18.2218C28.1241 18.2218 26.8326 19.5112 26.8326 21.0968C26.8326 22.6817 28.1241 23.9718 29.7076 23.9718ZM29.7076 20.1381C30.2369 20.1381 30.6679 20.5683 30.6679 21.0969C30.6679 21.6247 30.2369 22.055 29.7076 22.055C29.1798 22.055 28.7502 21.6247 28.7502 21.0969C28.7502 20.5683 29.1798 20.1381 29.7076 20.1381Z" fill="white"/>
<path d="M37.3753 23.9718C38.9616 23.9718 40.2503 22.6817 40.2503 21.0968C40.2503 19.5112 38.9616 18.2218 37.3753 18.2218C35.7903 18.2218 34.5003 19.5112 34.5003 21.0968C34.5003 22.6817 35.7903 23.9718 37.3753 23.9718ZM37.3753 20.1381C37.9031 20.1381 38.3327 20.5683 38.3327 21.0969C38.3327 21.6247 37.9031 22.055 37.3753 22.055C36.8474 22.055 36.4179 21.6247 36.4179 21.0969C36.4179 20.5683 36.8474 20.1381 37.3753 20.1381Z" fill="white"/>
<path d="M28.7502 41.2216H29.7076V42.1805C29.7076 42.7097 30.1372 43.1378 30.6679 43.1378C31.1957 43.1378 31.6253 42.7096 31.6253 42.1805V41.2216H32.5826C33.1133 41.2216 33.5429 40.7921 33.5429 40.2628C33.5429 39.7336 33.1133 39.3054 32.5826 39.3054H31.6253V38.3466C31.6253 37.8174 31.1957 37.3878 30.6679 37.3878C30.1373 37.3878 29.7076 37.8174 29.7076 38.3466V39.3054H28.7502C28.221 39.3054 27.7929 39.7336 27.7929 40.2628C27.7929 40.792 28.2211 41.2216 28.7502 41.2216Z" fill="white"/>
<path d="M39.2929 39.3054H35.4576C34.9298 39.3054 34.5003 39.7336 34.5003 40.2628C34.5003 40.792 34.9298 41.2216 35.4576 41.2216H39.2929C39.8208 41.2216 40.2503 40.7921 40.2503 40.2628C40.2503 39.7336 39.8208 39.3054 39.2929 39.3054Z" fill="white"/>
</g>
<defs>
<clipPath id="clip0_4055_637">
<rect width="46" height="46" fill="white" transform="translate(-3.05176e-05 0.97168)"/>
</clipPath>
</defs>
</svg>
