<svg width="50" height="50" viewBox="0 0 50 50" fill="none" xmlns="http://www.w3.org/2000/svg">
<path d="M49.5 25C49.5 38.531 38.531 49.5 25 49.5C11.469 49.5 0.5 38.531 0.5 25C0.5 11.469 11.469 0.5 25 0.5C38.531 0.5 49.5 11.469 49.5 25Z" fill="#FBFBFB" stroke="black"/>
<g clip-path="url(#clip0_4055_510)">
<path d="M24.9924 11.0073C17.265 11.009 11.002 17.2746 11.0037 25.0021C11.0042 27.6778 11.7721 30.2973 13.2161 32.5499L11.0392 38.1979C10.9233 38.4983 11.0728 38.8358 11.3732 38.9517C11.4404 38.9777 11.5117 38.9909 11.5837 38.9908C11.6505 38.9912 11.7168 38.9797 11.7796 38.957L17.6095 36.8757C24.1687 40.9609 32.7978 38.9552 36.8829 32.3959C40.9681 25.8366 38.9625 17.2076 32.4031 13.1224C30.1796 11.7376 27.612 11.0048 24.9924 11.0073Z" fill="#141414"/>
<path d="M31.6631 27.3905C31.6631 27.3905 30.2348 26.691 29.3404 26.2246C28.3284 25.7034 27.1391 26.6793 26.5794 27.2343C25.7084 26.8997 24.9128 26.3947 24.2393 25.7489C23.5933 25.0755 23.0883 24.2799 22.7538 23.4087C23.3089 22.8479 24.2824 21.6598 23.7636 20.6477C23.303 19.7523 22.5976 18.324 22.5976 18.324C22.4987 18.1275 22.2976 18.0035 22.0776 18.0033H20.9116C19.2136 18.2966 17.979 19.7782 17.9967 21.5012C17.9967 23.3318 20.1876 26.8484 21.6649 28.3268C23.1422 29.8053 26.6588 31.995 28.4905 31.995C30.2136 32.0127 31.6951 30.7781 31.9884 29.0801V27.9141C31.9886 27.6918 31.8624 27.4888 31.6631 27.3905Z" fill="#FAFAFA"/>
</g>
<defs>
<clipPath id="clip0_4055_510">
<rect width="28" height="28" fill="white" transform="translate(11 11)"/>
</clipPath>
</defs>
</svg>
